<svg width="14" height="16" viewBox="0 0 14 16" fill="none" xmlns="http://www.w3.org/2000/svg">
<path fill-rule="evenodd" clip-rule="evenodd" d="M9.33392 0H4.66696V1.52381H9.33392V0ZM6.22261 9.90476H7.77827V5.33333H6.22261V9.90476ZM12.4686 4.86857L13.5731 3.78667C13.2386 3.39809 12.873 3.03238 12.4763 2.71238L11.3718 3.79429C10.133 2.81777 8.59058 2.28548 7.00044 2.28571C5.14381 2.28571 3.36322 3.00816 2.05038 4.29412C0.737544 5.58009 0 7.32423 0 9.14286C0 12.9295 3.12686 16 7.00044 16C8.31832 16.0007 9.6096 15.6367 10.7256 14.9501C11.8415 14.2634 12.7368 13.2819 13.3082 12.1187C13.8796 10.9554 14.104 9.65772 13.9554 8.37505C13.8069 7.09237 13.2915 5.87688 12.4686 4.86857ZM7.00044 14.4762C3.99025 14.4762 1.55565 12.0914 1.55565 9.14286C1.55565 6.19429 3.99025 3.80952 7.00044 3.80952C10.0106 3.80952 12.4452 6.19429 12.4452 9.14286C12.4452 12.0914 10.0106 14.4762 7.00044 14.4762Z" fill="#DADFE3"/>
</svg>
