<svg width="136" height="136" viewBox="0 0 136 136" fill="none" xmlns="http://www.w3.org/2000/svg">
<path d="M0 19.0401V38.0801H19.04H38.08V19.0401V8.7738e-05H19.04H0V19.0401ZM32.64 19.0401V32.6401H19.04H5.44V19.0401V5.44009H19.04H32.64V19.0401Z" fill="#DADFE3"/>
<path d="M10.8809 19.0396V27.1996H19.0409H27.2008V19.0396V10.8796H19.0409H10.8809V19.0396Z" fill="#DADFE3"/>
<path d="M48.9608 2.72V5.44H46.2409H43.5209V8.16V10.88H46.2409H48.9608V13.6V16.32H46.2409H43.5209V19.04V21.76H46.2409H48.9608V24.48V27.2H46.2409H43.5209V32.64V38.08H46.2409H48.9608V40.8V43.52H40.8009H32.6409V46.24V48.96H35.3609H38.0809V51.68V54.4H32.6409H27.2009V59.84V65.28H24.4809H21.7609V68V70.72H19.0409H16.3209V73.44V76.16H19.0409H21.7609V78.88V81.6H19.0409H16.3209V84.32V87.04H13.6009H10.8809V89.76V92.48H19.0409H27.2009V87.04V81.6H32.6409H38.0809V84.32V87.04H35.3609H32.6409V89.76V92.48H35.3609H38.0809V89.76V87.04H40.8009H43.5209V95.2V103.36H46.2409H48.9608V106.08V108.8H46.2409H43.5209V122.4V136H51.6809H59.8408V133.28V130.56H57.1208H54.4008V125.12V119.68H51.6809H48.9608V114.24V108.8H51.6809H54.4008V111.52V114.24H57.1208H59.8408V116.96V119.68H62.5608H65.2808V116.96V114.24H68.0008H70.7208V119.68V125.12H68.0008H65.2808V130.56V136H73.4408H81.6008V133.28V130.56H89.7608H97.9208V133.28V136H116.961H136.001V127.84V119.68H133.281H130.561V125.12V130.56H125.121H119.681V127.84V125.12H122.401H125.121V116.96V108.8H122.401H119.681V106.08V103.36H125.121H130.561V108.8V114.24H133.281H136.001V106.08V97.92H127.841H119.681V95.2V92.48H122.401H125.121V89.76V87.04H122.401H119.681V89.76V92.48H116.961H114.241V87.04V81.6H116.961H119.681V76.16V70.72H122.401H125.121V76.16V81.6H127.841H130.561V84.32V87.04H133.281H136.001V81.6V76.16H133.281H130.561V73.44V70.72H133.281H136.001V62.56V54.4H133.281H130.561V48.96V43.52H127.841H125.121V51.68V59.84H127.841H130.561V62.56V65.28H125.121H119.681V68V70.72H116.961H114.241V68V65.28H106.081H97.9208V59.84V54.4H95.2008H92.4808V51.68V48.96H95.2008H97.9208V46.24V43.52H89.7608H81.6008V38.08V32.64H84.3208H87.0408V35.36V38.08H89.7608H92.4808V35.36V32.64H89.7608H87.0408V29.92V27.2H89.7608H92.4808V24.48V21.76H89.7608H87.0408V24.48V27.2H81.6008H76.1608V35.36V43.52H70.7208H65.2808V46.24V48.96H62.5608H59.8408V40.8V32.64H57.1208H54.4008V27.2V21.76H57.1208H59.8408V24.48V27.2H62.5608H65.2808V24.48V21.76H62.5608H59.8408V19.04V16.32H65.2808H70.7208V19.04V21.76H76.1608H81.6008V19.04V16.32H84.3208H87.0408V13.6V10.88H89.7608H92.4808V5.44V0H89.7608H87.0408V2.72V5.44H81.6008H76.1608V8.16V10.88H78.8808H81.6008V13.6V16.32H76.1608H70.7208V10.88V5.44H68.0008H65.2808V2.72V0H62.5608H59.8408V2.72V5.44H57.1208H54.4008V2.72V0H51.6809H48.9608V2.72ZM65.2808 8.16V10.88H62.5608H59.8408V13.6V16.32H57.1208H54.4008V19.04V21.76H51.6809H48.9608V19.04V16.32H51.6809H54.4008V13.6V10.88H57.1208H59.8408V8.16V5.44H62.5608H65.2808V8.16ZM54.4008 35.36V38.08H51.6809H48.9608V35.36V32.64H51.6809H54.4008V35.36ZM54.4008 46.24V48.96H57.1208H59.8408V51.68V54.4H62.5608H65.2808V51.68V48.96H68.0008H70.7208V51.68V54.4H68.0008H65.2808V57.12V59.84H70.7208H76.1608V62.56V65.28H73.4408H70.7208V68V70.72H73.4408H76.1608V78.88V87.04H73.4408H70.7208V89.76V92.48H73.4408H76.1608V97.92V103.36H78.8808H81.6008V97.92V92.48H84.3208H87.0408V100.64V108.8H84.3208H81.6008V111.52V114.24H87.0408H92.4808V119.68V125.12H87.0408H81.6008V127.84V130.56H76.1608H70.7208V127.84V125.12H76.1608H81.6008V122.4V119.68H78.8808H76.1608V114.24V108.8H65.2808H54.4008V106.08V103.36H57.1208H59.8408V100.64V97.92H62.5608H65.2808V95.2V92.48H62.5608H59.8408V89.76V87.04H65.2808H70.7208V84.32V81.6H65.2808H59.8408V78.88V76.16H54.4008H48.9608V73.44V70.72H46.2409H43.5209V73.44V76.16H38.0809H32.6409V73.44V70.72H38.0809H43.5209V68V65.28H38.0809H32.6409V62.56V59.84H38.0809H43.5209V57.12V54.4H46.2409H48.9608V48.96V43.52H51.6809H54.4008V46.24ZM87.0408 51.68V54.4H89.7608H92.4808V57.12V59.84H89.7608H87.0408V62.56V65.28H89.7608H92.4808V70.72V76.16H87.0408H81.6008V68V59.84H84.3208H87.0408V57.12V54.4H81.6008H76.1608V51.68V48.96H81.6008H87.0408V51.68ZM103.361 73.44V76.16H100.641H97.9208V73.44V70.72H100.641H103.361V73.44ZM114.241 73.44V76.16H111.521H108.801V73.44V70.72H111.521H114.241V73.44ZM92.4808 84.32V87.04H87.0408H81.6008V84.32V81.6H87.0408H92.4808V84.32ZM54.4008 95.2V97.92H51.6809H48.9608V95.2V92.48H51.6809H54.4008V95.2ZM108.801 100.64V108.8H100.641H92.4808V100.64V92.48H100.641H108.801V100.64ZM119.681 100.64V103.36H116.961H114.241V100.64V97.92H116.961H119.681V100.64ZM119.681 111.52V114.24H116.961H114.241V111.52V108.8H116.961H119.681V111.52ZM108.801 116.96V119.68H111.521H114.241V122.4V125.12H106.081H97.9208V122.4V119.68H100.641H103.361V116.96V114.24H106.081H108.801V116.96Z" fill="#DADFE3"/>
<path d="M48.9588 57.1202V59.8402H46.2388H43.5188V62.5602V65.2802H46.2388H48.9588V68.0002V70.7202H51.6788H54.3988V68.0002V65.2802H57.1188H59.8388V59.8402V54.4002H54.3988H48.9588V57.1202Z" fill="#DADFE3"/>
<path d="M59.8398 73.4406V76.1606H62.5598H65.2798V73.4406V70.7206H62.5598H59.8398V73.4406Z" fill="#DADFE3"/>
<path d="M97.9211 100.64V103.36H100.641H103.361V100.64V97.9201H100.641H97.9211V100.64Z" fill="#DADFE3"/>
<path d="M97.9211 19.0401V38.0801H116.961H136.001V19.0401V8.7738e-05H116.961H97.9211V19.0401ZM130.561 19.0401V32.6401H116.961H103.361V19.0401V5.44009H116.961H130.561V19.0401Z" fill="#DADFE3"/>
<path d="M108.799 19.0396V27.1996H116.959H125.119V19.0396V10.8796H116.959H108.799V19.0396Z" fill="#DADFE3"/>
<path d="M65.2803 35.3601V38.0801H68.0003H70.7203V35.3601V32.6401H68.0003H65.2803V35.3601Z" fill="#DADFE3"/>
<path d="M0 46.2403V48.9603H8.16H16.32V51.6803V54.4003H13.6H10.88V57.1203V59.8403H5.44H0V62.5603V65.2803H2.72H5.44V68.0003V70.7203H2.72H0V81.6003V92.4803H2.72H5.44V84.3203V76.1603H8.16H10.88V68.0003V59.8403H16.32H21.76V54.4003V48.9603H24.48H27.2V46.2403V43.5203H13.6H0V46.2403Z" fill="#DADFE3"/>
<path d="M103.358 48.9598V54.3998H106.078H108.798V57.1198V59.8398H114.238H119.678V57.1198V54.3998H114.238H108.798V48.9598V43.5198H106.078H103.358V48.9598Z" fill="#DADFE3"/>
<path d="M114.239 46.24V48.96H116.959H119.679V46.24V43.52H116.959H114.239V46.24Z" fill="#DADFE3"/>
<path d="M0 116.96V136H19.04H38.08V116.96V97.92H19.04H0V116.96ZM32.64 116.96V130.56H19.04H5.44V116.96V103.36H19.04H32.64V116.96Z" fill="#DADFE3"/>
<path d="M10.8809 116.96V125.12H19.0409H27.2008V116.96V108.8H19.0409H10.8809V116.96Z" fill="#DADFE3"/>
</svg>
