<svg width="214" height="189" viewBox="0 0 214 189" fill="none" xmlns="http://www.w3.org/2000/svg">
<path d="M212.189 70.7983L212.127 70.5261L212.571 70.4266L212.59 70.4232L212.611 70.4184L212.533 70.0378L212.55 70.034L212.595 70.0241L212.629 70.0159L212.643 70.0132L212.658 70.0094L212.671 70.0067L212.698 70.0005L212.748 69.9896L212.777 69.9821L212.804 69.9766L212.696 69.4873L212.716 69.3406L212.696 69.4873L212.804 69.9766L212.951 70.6495L212.959 70.6858L212.948 70.6878L212.896 70.6994L212.833 70.7131L212.816 70.7169L212.801 70.7196L212.75 70.7306L212.68 70.747L212.718 70.8721L212.734 70.9251L212.784 71.0602L212.85 71.2855L212.886 71.4226L212.954 71.7184L213 72.2795L212.984 72.4529L212.979 72.497L212.955 72.5151L212.951 72.5469L212.949 72.5972L212.912 72.5907L212.873 72.5835L212.773 72.5671L211.937 72.4703L211.632 72.4365L211.424 72.431L211.026 72.4905L210.953 72.5004L210.941 72.472L210.919 72.4501L210.897 72.4402L210.853 72.4365L210.827 72.4467L210.804 72.4659L210.761 72.4857L210.729 72.5042L210.702 72.5114L210.169 72.6228L210.133 72.63L210.112 72.6355L210.067 72.6447L209.386 72.7924L208.581 72.9569L208.024 73.1576L208 73.1959L207.987 73.227L207.895 73.238L207.5 73.2811L207.406 73.3402L207.361 74.1646L207.288 74.2385L207.257 74.2457L207.243 74.2467L207.232 74.2484L207.207 74.2474L207.162 74.2364L207.149 74.221L207.146 74.2156L207.137 74.2029L207.103 74.1636L206.973 74.1691L206.965 74.1701L206.947 74.1708L206.851 74.1735L206.706 74.18L206.749 74.629L206.76 74.7449L206.787 75.2342L206.885 76.4464L206.83 76.6071L206.213 77.2249L206 77.425L205.951 77.4212L205.868 77.4147L205.768 77.3949L205.68 77.36L205.586 77.2797L205.393 77.1381L205.291 77.0817L205.15 77.0167L204.761 76.921L204.254 76.8389L203.464 76.8242H203.343L203.135 76.8215L202.844 76.7876L202.443 76.6765L202.379 76.6563L202.012 76.5431L201.903 76.5086L201.226 76.3342L200.424 76.0302L199.906 75.8969L199.334 75.7936L198.813 75.8548L198.612 75.8257L198.606 75.8247L198.565 75.8203L198.486 75.8384L198.373 75.8777L198.27 75.9352L198.187 76.0046L198.17 76.0254L198.144 76.0565L198.109 76.1013L198.101 76.1123L198.068 76.0894L198.047 76.0723L197.911 75.9673L197.783 75.9252L197.231 75.9068L197.209 75.8969L197.19 75.8531L197.186 75.8039L197.137 75.8011L196.547 75.9646L196.521 75.9762L196.407 76.0319L196.187 76.1752L196.084 76.2446L195.678 76.3988L195.089 76.4135L193.289 76.3944L192.862 76.3889L192.767 76.3916L192.356 76.3872L191.8 76.3704L191.432 76.4053L191.194 76.4864L191.058 76.6016L191.014 76.6908L190.931 76.7322L190.828 76.7849L190.485 76.8232L190.261 76.9056L189.614 77.3453L189.495 77.3976L189.159 77.5618L189.12 77.5481L189.091 77.5016L189.076 77.4769L189.05 77.4414L189.024 77.4075L188.912 77.4841L188.786 77.5765L188.647 77.6766L188.185 78.0227L186.724 79.1052L186.446 79.1948L186.304 79.1982L186.288 79.2222L186.28 79.2632L186.273 79.3217L186.257 79.3709L186.137 79.5634L186.105 79.6017L186.1 79.6082L185.434 80.2453L184.825 80.9014L184.712 81.043L184.182 81.5798L184.055 81.6937L183.86 81.8647L183.656 82.036L183.465 82.2059L183.451 82.1823L183.479 82.1245L183.659 81.945L184.024 81.651L184.193 81.5005L184.275 81.3983L184.242 81.3754L184.11 81.2851L183.514 80.8778L182.706 80.3283L182.169 79.9577L182.136 79.9348L181.003 79.1747L179.684 78.2846L179.586 78.2063L179.39 77.9871L179.181 77.7307L178.768 77.0718L177.941 75.7362L177.194 74.5069L176.609 73.5656L176.539 73.479L176.356 73.2171L176.296 73.1166L176.201 73.0089L176.084 72.8345L175.97 72.7206L175.927 72.7093L175.915 72.6201L175.894 72.5579L175.839 72.4501L175.701 72.3199L175.196 71.9219L173.9 71.0674L173.411 70.748L173.074 70.5189L170.795 68.9864L170.073 68.5035L169.828 68.3411L169.611 68.1968L168.582 67.5041L168.534 67.4712L167.828 67L167.573 66.8267L166.755 66.2792L166.173 65.8884L165.91 65.713L165.352 65.3471L164.551 64.8277L163.172 63.9469L162.874 63.7506L162.805 63.7216L162.746 63.7287L162.636 63.7855L162.597 63.7982L162.515 63.7882L162.358 63.6675L162.341 63.4159L162.328 63.3902L162.271 63.3536L161.43 62.8288L161.019 62.5631L160.234 62.0622L158.807 61.1294L158.795 61.1218L158.239 60.7625L157.954 60.5679L156.843 59.8597L156.354 59.4634L155.945 58.9687L155.618 58.3299L155.506 57.8396L155.47 57.208L155.949 54.29L156.008 53.9395L156.032 53.7989L156.339 52.0318L156.479 51.1773L156.879 48.8498L156.988 48.2035L157.019 48.0175L157.057 47.7891L157.112 47.4588L157.129 47.3555L157.159 47.1941L157.234 46.7595L157.276 46.5123L157.402 45.7529L157.517 45.0666L157.531 44.9367L157.537 44.8512L157.55 44.6364L157.547 44.0835L157.532 43.679L157.512 43.4154L157.39 42.3783L157.198 41.4766L156.854 40.3482L156.535 39.6165L156.416 39.357L156.238 39.0048L155.963 38.5011L155.871 38.3493L155.479 37.7533L155.287 37.4968L155.105 37.2961L154.809 37.0397L154.519 36.8581L154.427 36.774L154.492 36.6926L154.732 36.419L154.836 36.3038L154.929 36.271L155.014 36.1879L155.277 35.9526L155.318 35.9014L155.351 35.8456L155.366 35.7591L155.42 35.2606L155.432 35.1491L155.496 34.5377L155.544 34.1718L155.529 33.9499L155.55 33.7044L155.348 33.6914L155.356 33.6213L155.364 33.5273L155.363 33.1604L155.137 33.1631L154.827 33.1659L154.498 33.1365L154.187 33.0506L153.932 32.9795L153.819 32.9487L153.773 32.8975L153.699 32.9084L153.665 32.9057L153.163 32.7306L153.108 32.7084L153.017 32.6602L152.836 32.548L152.737 32.4776L152.547 32.325L152.497 32.2922L152.319 32.2085L151.711 31.94L151.116 31.7947L150.637 31.687L150.562 31.6699L150.433 31.6378L150.035 31.5622L149.966 31.5164L149.923 31.4771L149.941 31.436L149.923 31.4316L149.883 31.4196L149.827 31.4032L149.858 31.3704L149.906 31.2226L149.905 31.1905L149.904 31.1844L149.803 31.0948L149.763 31.1166L149.69 31.1331L149.625 31.1112L149.369 31.0216L148.085 30.495L147.932 30.4075L147.583 30.0313L147.415 29.9072L147.199 29.7465L146.318 29.2271L146.002 28.9809L145.584 28.6404L145.261 28.3572L145.11 28.1292L145.132 27.9066L145.178 27.8317L145.407 27.4764L145.49 27.2528L145.523 26.9929L145.378 26.4561L144.44 25.128L143.845 24.4971L143.427 23.8256L142.973 23.0224L142.771 22.6643L142.52 22.2602L142.185 21.6905L141.956 21.4542L141.642 21.3192L141.341 21.3766L141.011 21.5189L140.665 21.5736L140.624 21.5619L140.6 21.5418L140.572 21.4269L140.126 20.5515L140.131 20.4418L140.158 20.4055L140.174 20.3881L140.244 20.3023L140.296 20.2393L140.314 20.2164L140.295 20.1214L140.174 20.0273L140.154 19.9644L140.157 19.9333L140.179 19.896L140.314 19.761L140.375 19.4433L140.348 19.4286L138.273 18.9605L138.135 18.0923L137.298 16.9933L137.202 16.874L136.63 16.2459L136.545 16.1426L136.464 15.9966L136.356 15.7894L136.145 15.3514L135.781 14.9086L135.452 14.6942L134.923 14.5574L134.774 14.5253L134.695 14.5082L134.376 14.5246L134.009 14.4323L133.64 14.3399L133.572 14.2999L133.538 14.4285L133.491 14.5591L133.455 14.6449L133.412 14.7133L132.753 15.1623L132.15 15.5794L132.045 15.6362L131.969 15.6417L131.677 15.6116L131.584 15.6143L131.463 15.6106L131.168 15.6755L130.896 15.7713L130.789 15.7603L130.391 15.5822L130.336 15.5494L129.77 15.2081L129.063 14.7947L128.595 14.5246L128.492 14.4613L128.461 14.4432L128.212 14.3273L127.499 14.0889L127.414 14.0609L127.331 14.0305L127.117 13.9457L126.976 13.8681L126.764 13.7378L126.574 13.6044L126.379 13.4218L126.058 13.0447L125.949 12.951L125.854 12.9106L125.631 12.781L124.168 11.9276L122.046 10.8023L118.826 9.09908L118.394 8.86896L117.494 8.34512L117.3 8.23535L117.069 8.11226L116.673 7.90402L116.572 7.85307L116.479 7.80554L116.335 7.73168L115.903 7.51353L115.803 7.46497L115.76 7.42394L115.357 7.01875L115.319 6.94934L115.339 6.86351L115.331 6.83068L115.317 6.79957L115.287 6.7387L115.166 6.78247L115.123 6.79888L115.084 6.82419L115.029 6.78315L114.887 6.67271L114.826 6.63373L114.721 6.59235L114.653 6.565L114.54 6.52602L114.422 6.48943L114.362 6.48123L114.302 6.48191L113.867 6.61629L113.725 6.65083L113.614 6.64467L113.48 6.59988L113.379 6.55508L113.365 6.54585L113.259 6.4867L113.15 6.39814L113.07 6.32975L112.944 6.18443L112.865 6.07056L112.802 5.97448L112.749 5.87874L112.709 5.83121L112.701 5.81924L112.626 5.74196L112.605 5.71974L112.569 5.66879L112.553 5.6469L112.503 5.57202L112.373 5.35557L112.344 5.29471L112.278 5.17401L112.247 5.11656L112.187 5.00338L112.074 4.76334L112.024 4.65939L111.947 4.52501L111.918 4.4703L111.889 4.40739L111.868 4.35063L111.855 4.31438L111.831 4.20017L111.809 4.08152L111.742 3.93996L111.664 3.83875L111.537 3.94646L111.376 4.10512L111.285 4.2183L111.19 4.44295L111.215 4.56981L111.261 4.72607L111.25 4.80437L111.227 4.85019L111.207 4.8902L111.172 4.95243L110.994 5.26359L110.647 5.87224L109.786 7.35282L109.693 7.41574L109.179 7.52721L109.007 7.63663L108.793 8.17517L108.773 8.67645L108.689 8.88435L108.626 8.98864L108.607 8.99137L108.508 9.00847L107.8 9.30527L106.951 9.90845L106.637 10.1834L106.604 10.2107L106.5 10.3065L104.882 11.6602L104.719 11.7805L104.469 12.1146L103.804 13.4509L103.531 13.9604L103.419 14.079L103.197 14.2343L103.013 14.2705L102.907 14.2845L102.913 14.3365L103.142 14.2989L103.295 14.2404L103.142 14.2989L102.913 14.3365L102.907 14.2845L102.805 14.2982L102.576 14.2705L102.373 14.2014L102.258 14.1611L101.23 13.641L101.202 13.6318L101.134 13.6044L101.106 13.5935L101.003 13.5525L100.942 13.5323L100.853 13.5039L100.786 13.483L100.723 13.4591L100.676 13.4382L100.491 13.3678L100.209 13.2283L100.1 13.1626L99.8211 12.9188L99.5838 12.6012L99.5503 12.542L99.4692 12.4032L99.2538 11.9888L98.9242 11.4229L98.5121 10.7476L98.3542 10.4617L98.2006 10.1659L98.0984 9.99632L97.9852 9.8975L97.859 9.798L97.816 9.76449L97.7445 9.70602L97.6764 9.6284L97.6316 9.57711L97.5048 9.43316L97.2073 9.04608L96.7775 8.51198L96.4168 8.04832L96.1911 7.86401L95.2737 7.0909L95.2039 7.01772L94.8015 6.69733L94.5874 6.51234L94.411 6.39985L93.9292 6.21281L93.7148 6.11775L93.4088 5.982L93.3212 5.95806L93.1591 5.89241L92.8545 5.76384L92.2462 5.53099L92.2219 5.58399L92.2 5.62331L92.1364 5.69067L92.041 5.69341L91.9754 5.66161L91.9275 5.69443L91.895 5.69717L91.6577 5.61681L91.2665 5.49166L91.0843 5.43148L90.9639 5.38943L90.9154 5.37575L90.8241 5.38122L90.7817 5.39592L90.7365 5.40686L90.5891 5.39148L89.2878 4.6293L88.7779 4.30959L87.4645 3.48724L87.4283 3.42808L87.3763 3.41612L87.3144 3.35867L87.0932 3.22087L87.071 3.20719L87.125 2.98699L87.1602 2.9781L87.1048 2.50075L87.058 2.07812L87.0258 1.91263L86.9968 1.84424L86.9482 1.77312L86.9332 1.77756L86.9185 1.7803L86.9041 1.78235L86.8921 1.78406L86.607 1.81586L86.5434 1.83159L86.5027 1.72832L86.4483 1.35219L86.3926 1.25098L86.3351 1.20824L86.2719 1.15045L86.2083 1.0995L86.1799 1.06565L86.1607 1.02359L86.0865 1.03009L85.9518 1L85.8564 1.13883L85.7344 1.26295L85.482 1.35322L84.714 1.44623L84.6696 1.45546L84.6846 1.57582L84.6545 1.68079L84.6087 1.76491L84.502 1.88459L84.4087 2.01589L84.2897 2.31337L84.2206 2.3992L84.1139 2.44946L84.0134 2.46964L83.905 2.5582L83.8 2.65394L83.6793 2.85739L83.5986 3.17881L83.574 3.43356L83.3801 3.3785L83.217 3.32208L83.0802 3.26088L82.9106 3.16685L82.5974 3.02357L82.3194 2.94869L81.9666 2.92578L81.7265 2.91415L81.7091 2.85466L81.3948 2.96168L81.121 3.15043L80.8173 3.52827L80.4149 3.66812L80.3868 3.70163L80.3041 3.66436L80.2695 3.65068L80.2312 3.63325L80.1916 3.61615L80.13 3.72454L80.1211 3.73548L80.0408 3.84148L79.4605 4.41115L79.2513 4.69837L79.2471 4.7059L79.1846 4.81258L79.1774 4.82626L79.1606 4.85737L79.1039 4.96064L78.698 5.68417L78.5291 6.10783L78.4727 6.36326L78.4453 6.47473L78.4241 6.5715L78.2819 7.24135L77.9659 7.76622L77.9423 7.81819L77.9194 7.87051L77.8432 8.57421L77.9334 9.15721L77.9526 9.25945L77.9539 9.26766L77.9601 9.35006V9.35895L77.9608 9.42563L77.8726 9.7197L77.8233 9.83459L77.7755 9.94503L77.7139 10.0729L77.479 9.97239L77.1706 9.89203L76.8693 9.89853L76.4727 9.81168L76.2662 9.798L75.9423 9.84382L75.7912 9.89579L75.4288 9.69405L75.0513 9.44034L74.9316 9.33263L74.1055 8.73937L74.0272 8.69355L73.9748 8.70005L73.9222 8.71201L73.834 9.1685L73.6565 9.49402L73.5136 9.91494L73.4308 10.0227L73.3409 10.0883L73.2387 10.104L73.1299 10.1139L73.1115 10.1068L73.0311 10.0866L72.7808 10.0117L72.6526 10.0281L72.4098 10.1834L72.2655 10.3858L72.072 10.6453L72.0518 10.6706L71.7847 11.0095L71.7485 11.055L71.5994 11.2977L71.5481 11.441L71.4616 11.693L71.3101 11.9734L71.2069 12.1659L71.2103 12.4152L71.0824 12.8614L71.198 12.9783L71.4678 13.1014L72.0535 13.2933L72.1568 13.4064L72.1513 13.9877V14.0609L72.1161 14.1802L72.02 14.276L71.5016 14.3563L71.2192 14.5061L71.1443 14.5646L71.0858 14.6357L70.9976 14.8145L71.0407 15.0228L71.0681 15.0703L71.2801 15.2016L71.386 15.3387L71.4257 15.4881L71.5533 16.1802L71.6152 16.3153L71.7253 16.5536L71.9451 16.8118L71.952 16.9096L71.9335 16.9424L71.5922 17.271L71.4271 17.4351L71.2688 17.6389L71.2623 17.9326L71.4107 18.2175L72.0679 18.914L72.1862 19.0809L72.2327 19.2262L72.2672 19.4608L72.1906 19.7682L72.0173 20.1515L71.8808 20.5926L71.8719 20.7396L71.9585 21.2443L72.1304 21.6423L72.4197 22.0147L73.0954 22.4099L73.2311 22.5012L73.4137 22.6664L73.6794 22.8562L73.4158 23.2549L73.1959 23.4549L73.2093 23.6276L73.211 23.9066L73.1733 24.0465L72.9145 24.2991L72.3705 25.2925L72.0686 25.7459L72.0344 25.9001L71.9267 25.9121L71.6575 25.8929L71.3833 25.818L70.945 25.7093L70.839 25.66L70.6988 25.5954L70.6133 25.5605L69.7355 25.0586L69.5984 24.9793L69.355 24.8305L69.1125 24.677L68.9915 24.6059L68.9262 24.5631L68.537 24.321L68.0679 24.0181L67.3348 23.725L66.5364 23.6266L66.2745 23.6293L66.2454 23.6331L66.175 23.6402L65.9558 23.6741L65.8265 23.684L65.7944 23.6857L65.4425 23.672L64.6003 23.5534L63.2415 23.0377L62.8787 22.8452L62.73 22.7621L62.3477 22.4954L61.4409 21.7425L59.9856 20.7375L59.619 20.5002L59.3325 20.3094L59.2053 20.2246L59.0135 20.0913L58.7256 19.9938L58.2441 20.0239L57.284 20.2787L56.5618 20.5871L55.9148 20.7468L55.22 20.9796L55.0689 21.006L54.9578 21.0207L54.2452 21.0323L53.6037 20.8965L52.4497 20.158L52.2291 19.936L51.5753 19.5548L51.2331 19.456L50.5273 19.0874L50.0062 18.9513L49.1452 18.8846L48.4217 18.7386L46.976 18.2349L46.661 18.0421L46.3936 17.7931L46.3201 17.7155L45.6834 17.0125L44.5233 15.7456L44.0295 15.2727L43.7693 15.1076L43.3361 14.9534L43.0334 14.9079L42.7722 14.9188L42.3506 14.9828L41.9738 15.0402L40.4457 15.3613L40.3769 15.3842L40.3506 15.3979L40.2491 15.4608L40.1762 15.5083L39.6644 15.9658L39.1333 16.3197L39.016 16.3974L38.9911 16.4138L38.761 16.569L38.0367 17.0501L38.019 17.0628L37.9861 17.0846L37.9598 17.1277L37.9372 17.1841L37.848 17.4591L37.7974 17.6143L37.7061 17.8625L37.637 17.9867L37.6011 18.054L37.5454 18.1491L37.3594 18.2431L37.3512 18.2623L37.3142 18.3597L37.2937 18.4182L37.159 18.7779L36.896 19.4717L36.0166 21.7999L35.648 22.7758L35.5813 22.9584L35.3105 23.672L34.9863 24.531L34.9491 24.6298L34.9744 24.677L35.0322 24.7556L34.5545 25.975L34.4091 26.0088L34.2183 26.4862L34.1479 26.6677L33.9971 27.0319L33.5297 28.161L33.504 28.2222L33.3772 28.5272L33.4616 28.6448L33.3433 28.9324L33.2052 29.261L33.0592 29.2921L32.8708 29.754L32.8475 29.8115L32.508 30.6256L32.1773 31.449L32.1572 31.4945L31.873 32.2057L31.8682 32.2194L31.767 32.4403L31.6873 32.6273L31.5861 32.8691L31.4442 33.2059L31.2818 33.7106L31.2616 33.7684L31.2377 33.8193L31.0869 34.1489L31.0455 34.2238L31.0199 34.2703L30.8821 34.577L30.8479 34.6728L30.7586 34.8981L30.6246 35.2397L30.3425 35.9581L30.3114 36.0392L30.2861 36.1031L30.0307 36.7675L29.9982 36.8516L29.9684 36.9255L29.9117 37.067L29.8847 37.1371L29.8631 37.1939L29.8341 37.2694L29.6173 37.8357L29.4142 38.3677L29.2651 38.7702L29.1987 38.96L29.1981 38.9665L29.1232 39.1781L29.1091 39.2294L29.1963 39.504L29.2428 39.6045L29.2801 39.6739L29.3112 39.7139L29.3437 39.7515L29.3694 39.7834L29.5041 40.0846L29.5208 40.1219L29.5704 40.2371L29.6084 40.3154L29.6586 40.4187L29.6788 40.4515L29.6976 40.4734L29.7537 40.511L29.7841 40.5247L29.8289 40.5428L29.9161 40.5866L29.9462 40.6231L29.9568 40.6423L29.9691 40.6843L29.9701 40.7069L29.9524 40.7592L29.9178 40.8577L29.751 41.2831L29.5472 41.8223L29.4771 42.0059L29.4326 42.1208L29.3735 42.2313L29.2466 42.3985L29.1567 42.4925L29.063 42.5783L29.0014 42.6368L28.9112 42.7059L28.6619 42.8977L28.5231 43.0246L28.3945 43.1415L28.2711 43.3214L28.164 43.5559L28.136 43.6288L28.0892 43.7703L28.0478 43.9136L28.0355 44.0114L27.9931 44.1389L27.9462 44.2685L27.8703 44.4559L27.844 44.5205L27.737 44.7917L27.6402 45.0088L27.6067 45.0444L27.5916 45.0912L27.5971 45.1404L27.5079 45.3094L27.4477 45.4068L27.395 45.4926L27.2668 45.7026L27.1601 45.8359L27.1057 45.877L27.0114 45.9491L26.943 45.9837L26.5128 46.2046L26.3785 46.2203L26.3148 46.3642L26.2598 46.4849L26.1131 46.8098L25.9278 47.2379L25.8864 47.3483L25.6094 48.0931L25.5756 48.2056L25.5291 48.3304L25.4822 48.4565L25.3386 48.8159L25.1936 49.1794L24.984 49.7114L24.6233 50.6453L24.6048 50.6928L24.3716 51.2997L24.361 51.3254L24.2304 51.6437L24.0482 52.0281L23.911 52.3167L23.7729 52.6241L23.5195 53.2347L23.5017 53.3343L23.5 53.3688L23.5045 53.402L23.5715 53.6109L23.7435 53.7531L23.7709 53.7661L23.7507 53.8099L23.7261 53.8646L23.6071 54.0646L23.4826 54.531L23.5185 55.0056L23.525 55.0942L23.5342 55.4765L23.3828 55.9364L23.3516 56.1484L23.3622 56.4961L23.3896 57.4135L23.3386 57.6187L23.0306 57.9172L22.9735 58.0232L22.9075 58.3874L22.783 58.7204L22.5307 59.3585L22.437 59.54L21.8769 60.3015L21.3062 60.8456L21.0952 61.1229L21.0354 61.2114L20.8517 61.4826L20.6763 61.7893L20.267 62.7101L20.2363 62.9666L20.3029 63.6805L20.3262 64.1781L20.2465 64.4619L19.5302 65.5588L19.511 65.8228L19.6167 66.0966L19.8198 66.3658L19.8936 66.4789L19.9217 66.6414L19.8109 67.2849L18.4637 69.2274L17.9778 69.8186L17.5076 70.5664L16.7892 72.0258L16.1112 73.489L16.0052 74.5223L15.6793 75.5447L15.4485 76.2155L15.4112 76.3441L15.1301 77.571L14.6528 78.6132L13.8281 80.6826L13.5015 81.295L12.3581 83.9693L11.799 85.0118L11.7443 85.1131L11.6256 85.4078L11.5904 85.6325L11.5791 85.8981L11.5925 86.0011L11.7511 86.4466L11.7624 86.6658L11.3288 87.8715L11.2793 88.4291L11.268 88.5057L11.2181 88.6309L10.937 89.0754L10.2487 89.6796L10.0794 89.8878L10.036 89.9634L9.74329 90.6281L8.7951 91.5561L8.41316 92.387L8.20834 92.6999L7.91872 93.619L7.41368 94.6534L6.89394 96.1685L5.96696 97.6792L5.8336 98.2533L5.74504 99.1485L5.75598 99.1844L5.76795 99.3577L5.80248 99.5957L5.84044 99.7865L5.85754 99.951L5.85446 100.187L5.6746 101.189L5.57305 101.376L5.31728 101.645L5.23077 101.673L5.16854 101.744L4.35063 103.212L3.74779 103.932L3.50707 104.388L3.49134 104.451L3.38466 104.811L3.29268 105.261L3.06016 105.94L2.82012 106.385L2.61359 106.67L2.44605 106.852L1.88766 107.4L1.60864 107.765L1.28859 108.502L1.13506 108.883L1.07146 109.05L1.04582 109.107L1 109.195L1.05403 109.247L1.09506 109.286L1.39767 109.737L1.47119 109.918L1.81449 111.249L1.84321 111.315L1.87501 111.378L2.18036 111.911L2.63308 113.456L2.86492 113.841L3.2154 114.283L3.67838 114.62L3.90748 114.716L5.36515 114.775L5.59014 114.827L5.83155 114.944L6.05039 115.137L6.21725 115.381L6.30718 115.656L6.47678 116.615L6.67168 116.919L6.96541 117.12L7.55798 117.263L7.7734 117.356L7.82572 117.389L7.91017 117.329L7.95941 117.284L10.7099 114.611L11.2211 114.181L11.2697 114.149L11.744 113.84L13.1107 112.968L13.5039 113.157L13.6092 113.142L13.8551 113.07L14.5536 112.853L15.0091 112.877L15.3442 112.968L16.014 113.242L16.1354 113.308L16.4151 113.448L16.6692 113.578L16.888 113.696L17.0751 113.789L17.43 113.932L17.5285 113.951L17.7456 113.989L17.9627 114.019L18.0896 114.038L18.6976 114.138L18.9072 114.2L19.6881 114.366L19.9784 114.428L20.5666 114.382L21.3759 114.186L21.8044 114.117L21.9121 114.133L22.0119 114.174L23.0193 114.969L23.0289 114.979L23.3014 115.221L23.8307 115.8L23.9377 115.889L24.1624 116.006L24.6688 116.111L24.8479 116.113L25.0025 116.115L25.5281 116.272L25.7961 116.383L25.9863 116.494L26.1641 116.632L26.2065 116.647L26.3114 116.745L26.3555 116.929L26.3449 117.031L26.3268 117.177L26.3176 117.311L26.4968 117.373L26.6766 117.403L26.7077 117.407L27.0869 117.486L27.4391 117.699L27.4231 117.781L27.4672 117.815L27.565 117.901L27.6436 117.981L27.7141 118.025L27.7947 118.079L27.8659 118.069L27.924 118.048L27.9753 117.973L28.0078 117.918L28.0673 117.879L28.1182 117.96L28.1825 118.036L28.9785 118.52L29.0835 118.592L29.1635 118.662L29.4873 119.056L29.7715 119.781L30.6848 122.345L30.8469 122.725L31.8638 125.47L32.8554 128.353L33.1546 129.216L33.488 130.271L33.5878 130.373L33.6073 130.412L33.49 130.449L33.3963 130.48L33.4158 130.547L33.5259 130.701L33.5878 130.828L33.6066 130.867L33.6918 131.04L33.7167 131.09L33.727 131.101L33.753 131.13L33.833 131.2L34.0874 131.369L34.2519 131.472L34.2652 131.481L34.2785 131.491L34.352 131.58L34.3483 131.659L34.1948 132.094L34.2091 132.226L34.2276 132.33L34.2898 132.616L34.5025 133.257L35.2448 135.447L35.4596 136.061L35.7044 136.736L35.8914 136.996L36.2607 137.328L36.2963 137.366L36.326 137.424L36.3763 137.469L36.4433 137.526L36.6899 137.763L36.7665 137.863L36.8006 137.906L36.8649 137.988L36.9306 138.11L36.9959 138.27L37.0144 138.311L37.1132 138.685L37.2999 139.099L37.3987 139.295L37.6117 139.573L37.6787 139.63L37.7181 139.667L39.6835 141.354L39.809 141.508L39.8391 141.531L39.9177 141.59L39.9482 141.598L39.9755 141.622L40.444 142.007L40.9558 142.445L41.0865 142.552L41.2786 142.661L41.5604 142.701L41.6794 142.71L41.7416 142.75L41.7867 142.812L41.8688 142.855L41.9598 142.902L42.0709 142.942L42.1424 142.806L42.2357 142.739L42.2791 142.731L42.4915 142.728L42.6453 142.726L42.7035 142.73L42.9045 142.761L43.0464 142.801L43.1586 142.831L43.2239 142.862L43.5805 143.032L43.7118 143.097L43.9368 143.222L44.0145 143.314L44.0856 143.398L44.1177 143.421L44.2914 143.432L44.6576 143.661L44.7209 143.753L44.7322 143.767L44.8153 143.812L44.8755 143.818L44.9144 143.807L44.9486 143.797L45.4188 144.137L45.5679 144.245L45.8845 144.48L46.3824 144.727L46.473 144.785L46.6395 144.894L47.0057 145.105L47.2122 145.231L47.7036 145.482L48.0934 145.697L48.5277 145.929L48.9257 146.434L49.1524 146.649L49.2615 146.686L49.2447 146.715L49.1842 146.808L49.1134 146.92L49.1079 146.963L49.1223 147.015L49.1401 147.08L48.9106 147.485L48.5567 147.957L48.4641 148.08L48.5171 148.121L50.0291 149.282L50.0794 149.332H50.0999L51.0005 150.011L51.3151 150.247L51.7319 150.568L51.7696 150.579L51.8065 150.588L52.0821 150.619L52.1399 150.622L52.0616 151.392L52.0407 151.59L51.9939 152.016L51.9672 152.242L51.6512 154.943L51.5784 155.574L51.5709 155.645L51.3753 156.983L51.3285 157.227L51.2139 157.818L50.4924 161.524L50.4162 161.927L50.3909 161.983L50.0739 163.62L49.9067 164.437L48.9739 169.121L48.9688 169.15L48.8901 169.623L48.8108 169.882L48.728 170.152L48.3372 170.874L48.0917 171.111L47.7877 171.355L47.4444 171.562L47.1162 171.691L45.823 172.11L45.7241 172.142L44.5797 172.517L44.0603 172.845L43.7754 173.146L43.4797 173.576L43.1983 174.137L43.1866 174.162L42.5356 175.52L42.2422 176.131L41.9888 176.716L41.9721 177.509L42.0842 177.86L42.7818 179.116L42.9158 179.37L42.9644 179.461L43.0252 179.564L43.2591 179.981L43.5142 180.437L43.7522 180.861L43.9738 181.257L44.1865 181.637L44.3294 181.892L44.4186 182.052L44.5328 182.253L44.659 182.48L44.726 182.608L44.7913 182.733L44.9302 182.998L44.9811 183.091L45.0861 183.284L45.1179 183.342L45.1671 183.41L45.2037 183.454L45.2434 183.497L45.3624 183.615L45.5138 183.721L45.5405 183.735L45.5874 183.746L45.6315 183.734L45.6448 183.758L45.7276 183.801L45.8158 183.827L45.8589 183.837L46.0011 183.871L46.9011 184.087L46.9893 184.107L47.2888 184.171L47.3305 184.154L47.3507 184.188L47.4003 184.21L47.8209 184.311L48.0794 184.374L49.2256 184.657L49.2635 184.656L49.2943 184.675L51.191 185.144L51.2348 185.155L52.2028 185.395L52.3043 185.419L53.046 185.56L53.617 185.538L54.3546 185.364L55.6663 184.958L55.6998 184.947L57.1376 184.483L59.1974 183.853L60.0023 183.841L60.4034 183.899L60.8278 184.018L61.1782 184.145L62.7765 184.766L64.6185 185.469L65.8713 185.952L66.2984 186.109L66.6291 186.235L66.7118 186.267L66.8257 186.311L67.1327 186.43L67.3851 186.526L67.5512 186.589L67.8542 186.707L68.1712 186.83L68.6085 186.999L68.8875 187.101L69.2589 187.249L70.1373 187.579L70.6923 187.718L70.8978 187.728L75.7939 187.808L76.6084 187.827L77.9536 187.841L78.325 187.846L79.3439 187.856L79.7655 187.814L80.1529 187.743L80.6292 187.657L82.0592 187.38L82.2907 187.336L83.0724 187.189L83.5183 187.099L83.6868 187.065L83.6916 187.064L83.9775 186.979L84.0267 186.965L84.1573 186.926L84.4812 186.866L85.0771 186.786L85.5395 186.701L86.885 186.447L87.3086 186.313L87.6974 186.068L89.3866 184.995L91.6057 183.573L91.6505 183.544L91.7818 183.459L91.9494 183.354L92.1138 183.153L92.1956 183.058L92.2944 182.945L92.3898 182.856L92.4773 182.797L92.5785 182.76L92.7512 182.71L92.9471 182.666L93.086 182.626L93.1632 182.593L93.2289 182.563L93.4518 182.455L94.5758 182.125L95.3937 181.733L95.487 181.666L95.5941 181.61L97.091 180.574L97.6829 180.122L98.903 179.131L99.4446 178.709L99.9907 178.322L101.649 177.326L102.337 176.997L102.666 176.892L104.844 176.218L105.239 176.031L105.675 175.693L106.361 174.968L106.998 174.281L107.475 173.798L107.834 173.425L108.172 173.128L108.777 172.623L108.879 172.509L108.904 172.392L108.95 172.393L109.148 172.305L109.618 171.917L110.413 171.238L111.386 170.418L111.688 170.156L112.345 169.406L112.628 168.941L114.03 165.779L114.32 165.495L114.493 165.344L114.92 165.114L115.691 164.804L115.948 164.698L117.007 164.275L117.684 163.959L118.187 163.641L118.836 163.231L119.482 162.831L119.559 162.787L119.971 162.547L120.761 162.159L121.206 161.999L123.238 161.436L123.573 161.356L125.392 160.892L125.734 160.71L126.154 160.29L126.31 160.092L126.949 159.41L127.668 158.589L127.792 158.383L128.327 157.015L128.47 156.764L128.878 156.06L130.713 152.993L131.186 152.24L131.42 151.852L131.753 151.257L132.05 150.84L132.212 150.613L132.554 150.309L133.712 149.496L133.715 149.452L133.802 149.437L133.88 149.408L134.041 149.299L134.719 148.799L134.748 148.776L136.073 147.811L136.328 147.607L136.548 147.351L136.564 147.281L136.613 147.268L138.068 145.33L138.797 143.885L139.012 143.606L139.164 143.459L139.174 143.448L140.091 142.84L141.485 141.67L142.321 141.201L143.444 140.703L144.272 140.335L144.762 140.123L145.662 139.806L145.778 139.768L146.036 139.682L146.21 139.628L146.373 139.57L146.437 139.54L146.844 139.351L147.907 138.514L147.928 138.499L148.143 138.334L148.442 138.086L149.08 137.573L149.34 137.292L149.501 137.026L149.758 136.573L150.041 136.13L150.186 135.924L150.331 135.731L150.739 135.332L150.997 135.147L151.605 134.817L153.031 134.088L153.066 134.137L153.084 134.167L153.945 133.921L153.949 133.898L153.953 133.85L154.106 133.831L155.682 133.56L156.193 133.417L156.275 133.384L156.394 133.335L156.935 133.086L157.441 132.845L157.623 132.761L157.659 132.746L157.839 132.663L158.983 132.121L159.422 131.914L159.824 131.724L159.999 131.644L160.045 131.623L160.239 131.532L160.516 131.399L161.125 131.096L161.811 130.665L162.683 130.028L162.917 129.854L163.494 129.426L163.682 129.293L163.841 129.174L164.301 128.842L164.463 128.719L164.507 128.671L164.619 128.591L164.711 128.526L165.061 128.275L166.451 127.275L167.41 126.651L167.944 126.326L168.064 126.248L168.544 125.937L168.72 125.828L168.772 125.795L168.944 125.681L169.098 125.564L169.449 125.287L169.644 125.106L169.791 124.956L169.922 124.822L170.048 124.69L170.198 124.534L170.543 124.156L170.869 123.819L171.156 123.521L171.931 122.691L172.2 122.406L172.493 122.103L172.694 121.885L172.838 121.742L173.293 121.256L173.579 120.954L173.697 120.825L173.973 120.522L174.213 120.237L174.315 120.103L174.539 119.8L174.564 119.759L174.805 119.374L175.133 118.831L175.164 118.781L175.281 118.594L175.302 118.561L175.411 118.386L175.685 117.931L175.815 117.714L176.009 117.389L176.101 117.23L176.151 117.135L176.201 117.049L176.519 116.402L176.816 115.485L177.038 114.78L177.138 114.465L177.482 113.334L178.023 110.799L178.143 110.548L178.331 110.296L179.217 109.288L179.395 109.093L179.666 108.795L180.17 108.377L180.53 108.116L180.723 107.978L181.274 107.582L182.106 106.983L182.629 106.608L183.239 106.251L183.473 106.127L184.164 105.742L186.006 104.67L186.026 104.655L186.071 104.624L186.157 104.561L186.092 104.485L186.034 104.399L185.936 104.286L185.402 103.797L185.307 103.713L185.294 103.702L185.349 103.645L185.351 103.616L185.374 103.587L185.471 103.48L185.937 102.936L186.014 102.845L186.286 102.539L186.43 102.378L186.452 102.351L186.756 101.994L186.839 101.955L186.902 101.896L186.948 101.837L187.041 101.723L187.057 101.7L187.071 101.678L187.086 101.61L187.414 101.224L187.72 100.876L187.804 100.757L187.883 100.592L187.915 100.528L187.921 100.514L188.159 100.006L188.218 99.846L188.247 99.7657L188.342 99.4918L188.273 99.1512L188.09 98.892L188.298 98.6978L188.417 98.5874L188.564 98.4393L188.615 98.3791L188.741 98.4321L188.901 98.5015L189.069 98.5162L189.096 98.5224L189.292 98.6458L189.371 98.6622L189.367 98.7207L189.344 99.2572L189.396 99.353L189.413 99.3714L189.727 99.6597L189.748 99.6798L190.045 99.9035L190.288 100.101L190.388 99.8057L190.458 99.5913L190.536 99.2911L190.542 99.2435L190.533 98.9707L190.55 98.8465L190.546 98.6575L190.434 98.3398L190.35 97.5075L190.372 96.6978L190.417 96.4085L190.442 96.1641L190.464 96.1073L190.566 95.4792L190.773 94.2198L190.862 93.6738L190.877 93.5852L190.886 93.5643L190.914 93.38L191.006 92.9054L191.133 92.2571L191.142 92.2144L191.21 92.1733L191.34 91.9815L191.434 91.7989L191.474 91.7234L192.014 90.9711L192.1 90.8682L192.288 90.5977L192.427 90.3341L192.478 90.2301L192.479 90.1908L192.46 90.1734L192.328 90.0202L192.296 89.8119L192.288 89.6577L192.434 89.5209L192.495 89.444L192.504 89.4214L192.591 89.2187L192.645 88.9632L192.743 88.8337L192.936 88.7923L193.049 88.7331L193.099 88.8179L193.159 88.8518L193.305 88.8244L194.5 88.4876L194.772 88.4192L197.417 87.7572L200.681 86.9479L200.773 86.925L200.817 86.914L201.099 86.8446L201.357 86.7796L201.696 86.6931L203.156 86.3351L204.828 85.92L204.98 85.8817L205.079 85.8571L207.83 85.1896L208.601 85.0098L209.483 84.7937L209.657 84.8091L209.732 84.8775L210.055 85.1972L210.212 85.2919L210.356 85.3247L210.769 85.2546L210.917 85.1688L210.969 85.1377L211.18 84.9588L211.367 84.8156L211.376 84.6976L211.374 84.6002L211.354 84.463L211.201 83.7751L211.194 83.7183L211.181 83.6143L211.176 83.5767L211.194 83.3049L211.224 83.0878L211.262 82.8987L211.332 82.8641L211.467 82.7855L211.694 82.6778L211.947 82.5773L211.994 82.5581L212.186 82.499L212.233 82.488L212.202 82.3783L212.15 82.1758L212.075 81.8537L211.89 81.055L211.858 80.9938L211.799 80.951L211.81 80.857L211.586 79.5398L211.544 79.3709L211.484 79.056L211.429 78.9849L211.405 78.8679L211.402 78.8553L211.169 77.7344L211.146 77.6257L210.918 76.5886L210.89 76.2484L210.845 76.1626L210.809 76.1663L210.797 76.1297L210.792 76.1024L210.789 76.086L210.793 76.0757L210.809 76.0586L210.859 76.0172L210.855 75.9991L210.804 75.7909L210.706 75.2855L210.623 74.9128L210.59 74.7651L210.584 74.7367L210.557 74.6283L210.184 72.881L210.154 72.7316L210.19 72.7234L210.617 72.6283L210.726 72.6037L210.782 72.5945L210.815 72.588L210.84 72.6016L210.869 72.6074L210.89 72.6044L210.917 72.5934L210.938 72.5726L210.946 72.5599L210.955 72.5305L210.953 72.5004L210.941 72.472L210.919 72.4501L210.897 72.4402L210.853 72.4365L210.846 72.403L210.835 72.35L210.75 71.9711L210.694 71.7239L210.649 71.4975L210.647 71.4363L210.652 71.3915L210.764 71.4479L210.858 71.4883L210.917 71.5129L211.141 71.5584L211.325 71.5447L211.491 71.4938L211.646 71.3888L211.711 71.3276L211.762 71.2681L211.875 71.04L211.915 70.8667L211.904 70.6868L211.884 70.5863L211.906 70.5774L211.959 70.5671L212.127 70.5261L212.189 70.7983ZM212.189 70.7983L212.247 71.0612L212.33 71.4326L212.342 71.491L211.524 71.6654L212.342 71.491L212.33 71.4326L212.247 71.0612L212.189 70.7983Z" stroke="#DADFE3" stroke-width="2" stroke-linejoin="round"/>
</svg>
