<svg width="112" height="215" viewBox="0 0 112 215" fill="none" xmlns="http://www.w3.org/2000/svg">
<path d="M7.2006 2.64268L7.05889 2L6.4779 2.11476L6.57709 2.55087V2.89516L6.52041 3.2624L6.35036 3.65259L6.10946 4.01983L5.9961 3.99687L5.62767 4.31821M5.62767 4.31821L5.23089 4.50182L4.5507 4.59363L4.15393 4.52478L3.31786 4.18049L3.30369 4.43297L3.828 6.79702M5.62767 4.31821L6.12364 3.85916L6.35036 3.49192L6.42122 3.28535L6.52041 2.84925L6.49207 2.3902L6.42122 2.06886L6.46373 2.04591L6.57709 2.59677M3.828 6.79702L3.43123 6.98063L2 7.27901L3.81383 15.8625L3.67213 15.9543M3.828 6.79702L3.98388 6.84292L4.08307 6.95768L4.04056 7.14129L3.89886 7.2331L3.72881 7.16425L2.04251 7.53147L3.70047 15.2199L3.84217 15.7937L3.67213 15.9543M3.67213 15.9543L3.71464 16.1838L3.79966 16.1609L3.87051 16.2068L3.98388 17.2395L5.28757 23.2521L5.42928 23.4356M5.42928 23.4356L5.68435 24.6748L6.25117 27.9792M5.42928 23.4356L6.25117 27.9792M6.25117 27.9792L6.22283 28.2087L6.37871 28.3005M6.37871 28.3005L6.46373 28.4611L7.31396 32.0637M6.37871 28.3005L7.31396 32.0637M7.31396 32.0637L6.59126 32.2702L5.96776 32.5226L4.87662 33.0733L4.76326 33.5781L4.6499 34.7942L4.70658 35.299L5.0325 36.584L5.1317 37.9148L5.31591 37.9607L5.47179 38.0524L6.06695 38.1442L6.33619 38.3507L6.37871 38.4654L6.32202 38.7408L6.18032 38.9932L5.92525 39.1997L4.60738 41.9071L4.91914 42.0906L5.08918 42.2742L5.16004 42.4348M5.16004 42.4348L5.14587 42.5954L4.98999 43.0772M5.16004 42.4348L4.98999 43.0772M4.98999 43.0772L4.5507 44.1096M4.98999 43.0772L4.67824 43.7655L4.5507 44.1096M4.5507 44.1096L4.3098 45.188L4.13976 48.9505M4.13976 48.9505L3.67213 50.0059M4.13976 48.9505L3.70047 49.8453L3.67213 50.0059M3.67213 50.0059L3.84217 50.1435M3.84217 50.1435L4.84828 51.5659M3.84217 50.1435L4.49402 51.0153L4.84828 51.5659M4.84828 51.5659L4.91914 51.8412V52.3689L6.32202 52.3001L7.48401 51.933L7.86661 51.8871H8.74519M8.74519 51.8871L9.04277 52.1165L9.49623 52.1395L10.2189 51.543M8.74519 51.8871L8.85855 51.7724L9.07111 51.6577L9.52457 51.6806L9.72296 51.7495L9.80798 51.8412L10.0631 51.6347L10.2189 51.543M10.2189 51.543L10.474 51.52L23.9786 51.153M10.2189 51.543L23.9786 51.153M23.9786 51.153V51.8412L24.8996 52.0706L25.013 52.1624H26.6143L26.8552 52.2083M26.8552 52.2083L27.5495 51.5889M26.8552 52.2083L27.337 51.8183L27.5495 51.5889M27.5495 51.5889V51.0383M27.5495 51.0383L46.4176 50.4759L62.0407 49.96M27.5495 51.0383L31.1725 50.9387L48.4174 50.4099L57.3361 50.1359L62.0407 49.96M62.0407 49.96L62.65 49.7076L62.7776 49.9829M62.7776 49.9829L62.9618 50.2582L63.9679 51.4512M62.7776 49.9829L63.9679 51.4512M63.9679 51.4512L64.6056 52.0248L65.144 52.323M65.144 52.323L66.3911 52.8277M65.144 52.323L65.9376 52.6671L66.3911 52.8277M66.3911 52.8277L67.3688 53.0571L68.1766 53.1489L69.8345 53.2177L71.1382 53.3554L71.8184 53.493L72.286 53.6536L73.8306 54.5253L75.4461 55.5577M75.4461 55.5577L77.6708 56.6818L79.7681 57.5764M75.4461 55.5577L75.4886 55.7642M79.7681 57.5764L81.1143 58.4711M79.7681 57.5764L80.9017 58.2876L81.1143 58.4711M81.1143 58.4711L81.2985 58.7005M81.2985 58.7005L81.4969 59.0905L81.5394 59.4805L81.4969 59.7328M81.2985 58.7005L81.4969 59.1134L81.5394 59.3199L81.4969 59.7328M81.4969 59.7328L81.2985 60.2375M81.2985 60.2375L81.1568 60.4669L80.9159 60.7651M81.2985 60.2375L80.9159 60.7651M80.9159 60.7651L80.5758 61.0862L80.0231 61.4303L78.7053 62.0267L77.77 62.5314M77.77 62.5314L76.8773 63.2425M77.77 62.5314L77.0615 63.059L76.8773 63.2425M76.8773 63.2425L76.4663 63.8848L76.3246 64.2518L76.2538 64.5959L76.2396 64.9629M76.2396 64.9629L76.2963 65.3758L76.4238 65.9034M76.2396 64.9629L76.4238 65.9034M76.4238 65.9034L77.2032 68.0367L77.2599 68.3807L77.2882 69.39M77.2882 69.39L77.189 70.2616L76.6222 72.0278M77.2882 69.39L77.2457 69.9634L76.6222 72.0278M76.6222 72.0278L76.2679 72.9452L75.9562 74.4361L75.9704 75.9958M75.9704 75.9958L76.2963 78.1288M75.9704 75.9958L76.1971 77.716L76.2963 78.1288M76.2963 78.1288L76.4805 78.6793L77.019 80.0324M76.2963 78.1288L77.019 80.0324M77.019 80.0324L79.5697 84.2295M77.019 80.0324L79.3855 83.8855L79.5697 84.2295M79.5697 84.2295L79.7256 84.6652L79.7822 85.0322L79.7539 85.5138L79.5839 86.2706M79.5839 86.2706L79.4138 86.7063L79.1021 87.3256M79.5839 86.2706L79.1021 87.3256M79.1021 87.3256L78.2802 88.4493M78.2802 88.4493L75.1343 92.1071L74.199 93.1505M78.2802 88.4493L76.0696 91.0637L74.199 93.1505M74.199 93.1505L70.9256 96.4756L69.2677 97.8056L68.3183 98.9522L67.2129 100.397L67.0571 100.741M67.0571 100.741L66.717 102.277M67.0571 100.741L66.7878 101.887L66.717 102.277M66.717 102.277L66.6886 103.08M66.6886 103.08L66.7878 103.378L67.1138 104.249M66.6886 103.08L67.1138 104.134V104.249M67.1138 104.249L67.3405 104.387M67.3405 104.387L66.2068 105.396L66.221 105.533M67.3405 104.387L66.2068 105.418L66.221 105.533M66.221 105.533L69.211 103.676M66.221 105.533L68.5592 104.066L68.9701 103.859L69.211 103.676M69.211 103.676L69.4236 103.424M69.4236 103.424L69.6928 104.249L69.877 104.478M69.4236 103.424L69.5653 103.355L69.7353 103.813L69.877 104.478M69.877 104.478L70.3021 105.189L71.4358 106.244L71.7759 106.68M71.7759 106.68L72.2293 107.505M71.7759 106.68L72.1301 107.276L72.2293 107.505M72.2293 107.505L72.5411 107.734L73.1929 108.101L74.9784 108.697M74.9784 108.697L75.7153 109.041L75.106 110.027M74.9784 108.697L75.7153 109.064L75.106 110.027M75.106 110.027L74.78 110.463M74.78 110.463L74.6242 110.555L73.9015 110.807M74.78 110.463L73.9015 110.807M73.9015 110.807L73.7739 110.944L73.3346 111.678M73.9015 110.807L73.3346 111.678M73.3346 111.678L72.7395 112.343M72.7395 112.343L72.1443 113.168M72.7395 112.343L72.3569 112.847L72.1443 113.168M72.1443 113.168L71.8184 113.306L71.4216 113.214L71.124 113.237L69.877 114.2M69.877 114.2L68.2332 112.985L67.7798 112.824L65.9518 112.572L62.48 112.847L61.233 113.008L59.8726 113.26L59.2066 113.489L58.5831 113.879L58.243 114.292L58.0163 114.727L57.9879 115.048L57.4494 115.461L57.2652 115.943L57.2085 116.86L57.251 117.456L57.577 119.359L57.6195 120.597L57.4919 121.032L57.251 121.445L56.9251 121.789L56.1599 122.362L55.4089 122.729L54.006 123.233L52.9574 123.829L52.3622 124.265L52.0788 124.609L51.8662 124.952L51.8804 124.93L51.7812 125.25L51.767 125.709L51.8946 126.145L52.1213 126.511L52.4614 126.809L54.3886 127.933L55.0121 128.552L55.253 128.873L55.4089 129.285L55.5081 129.904L55.423 130.454L55.3238 130.729L55.1963 130.936L54.9412 131.234L54.4169 131.669L53.8926 131.967L52.9432 132.334L52.0504 132.517L50.6334 132.724L50.3216 132.838L49.6131 133.274L49.0038 134.007L48.8196 134.42L48.6778 135.085L48.6637 136.368L48.5645 136.964L47.8843 138.844L47.7426 139.073L46.949 140.242L43.6615 144.276L41.6705 147.199L40.5723 148.838L40.2322 149.938L40.218 150.488L40.2747 151.404L40.6006 152.573L41.1108 153.811L41.4509 154.361L42.8396 156.103L43.3922 157.111L43.8457 158.142L44.0441 158.761L44.1149 159.334L44.0866 160.022L43.9449 160.801L43.4347 162.932L43.4206 163.276L43.5906 163.986L43.8173 164.513L44.1574 165.682V166.14L43.7182 167.561L42.7546 170.357L42.2444 173.129L41.9043 174.115L41.1958 175.994L41.1533 176.498L41.1958 176.841L41.3375 177.3L41.4509 177.46L41.8901 178.285L43.0805 179.625L44.6817 181.516L45.036 182.157L45.3336 183.257V183.807L45.1069 184.54L44.5542 185.434L44.1433 185.8L43.5481 186.396L42.4711 187.702L41.4367 188.87L40.6998 189.58L40.1188 189.993L39.1269 190.543L37.4264 191.001L36.5195 191.138L33.1469 191.39L32.736 191.597L32.3959 191.894L32.0983 192.467L31.9282 193.109L31.9141 193.429L32.0274 194.689L32.1125 194.987L32.6793 195.72L32.7785 195.972L32.906 196.43L32.9485 196.889L32.8918 197.805L32.7501 198.401L32.4809 199.111L31.9849 200.119L28.8107 205.273L28.4423 206.075L28.2155 207.151L28.2864 208.113L28.2439 208.274L27.9463 208.8L27.918 209.03L27.9605 209.259L27.9463 209.236L28.0738 209.419L28.8107 210.381L30.001 212.58L30.5962 213.267L31.078 213.634L31.7015 213.908L32.1833 214L32.5376 213.977L32.8352 213.863L33.5295 213.359L33.9263 212.901L34.9324 211.893L35.9669 210.954L37.639 209.625L38.0783 209.396L39.4953 208.961L41.4934 208.434L42.0035 208.205L42.542 207.861L43.208 207.609L43.959 207.472L44.8376 207.426L45.702 207.449L46.3397 207.678L46.8073 208.022L47.2324 208.434L47.5442 208.846L48.2811 210.152L48.9754 211.641L49.3297 212.397L49.6414 212.832L50.435 213.542L50.8885 213.771H51.4269L52.5039 213.404L52.929 213.061L55.0121 210.198L56.2591 208.709L56.8968 208.365L57.3361 208.228L57.832 208.182L58.7106 208.365L59.3766 208.594L59.6034 208.755L60.6661 209.854L62.8059 211.251L63.0893 211.503L63.7695 212.534L64.6622 213.061L66.5186 213.542L67.0996 213.565L67.7089 213.45L68.0915 213.29L69.8062 212.122L72.3285 209.236L72.867 208.869L73.9723 208.48L74.9501 208.411L76.6505 208.526L77.8409 208.755L79.8531 209.213L81.3127 209.602L82.8431 210.266L83.4524 210.404L84.1893 210.244L84.1751 210.266L84.6569 210.014L85.0112 209.694L85.8614 208.571L86.4991 207.243L86.9525 206.601L87.3493 206.166L88.072 205.456L88.2562 205.113L88.3979 204.746L88.6388 204.448L89.0215 204.059L89.4749 203.738L90.4102 202.868L92.139 201.654L92.6208 201.15L93.0034 200.646L93.4143 200.21L94.6188 198.744L95.1573 197.278L95.3274 196.591L95.5399 194.941V194.575L95.214 192.685L94.9731 191.23L94.803 190.497L94.7747 189.855L94.9447 189.374L95.2423 189.031L95.7666 188.618L96.1209 188.412L98.785 187.45L100.23 187.106L100.57 186.969L101.421 186.51L102.129 185.938L102.724 185.273L102.994 184.838L103.135 184.517L103.164 184.242L103.15 183.005L103.305 181.103L103.688 178.995L104.014 177.735L104.212 177.3L104.496 176.91L104.949 176.452L105.445 176.085L106.026 175.764L106.735 175.467L107.854 175.215L108.818 174.94L109.526 174.688L110.107 174.275L110.249 174.115L110.504 173.679L110.773 173.106L111 172.19V171.846L110.943 171.159L110.83 170.632L110.688 170.403L110.348 170.105L109.923 169.807L109.682 169.532L109.484 169.188L109.328 168.776L108.974 167.607L108.86 166.69L108.747 166.461L108.549 166.301L107.968 166.049L107.472 165.751L107.117 165.407L106.749 164.765L106.706 164.513L106.763 164.307L106.891 164.101L107.741 163.207L108.166 162.497L108.393 161.947L108.407 161.511L108.279 161.076L107.528 159.357L106.961 158.326L106.891 157.845L107.046 154.705L106.976 154.43L106.168 152.573L105.969 151.977L105.913 151.519L105.941 151.152L106.168 149.983L106.366 148.7L106.281 148.173L106.026 147.577L105.19 146.408L104.737 145.995L104.368 145.766L103.986 145.652L103.504 145.56L102.455 145.606L100.67 145.881L100.245 145.858L99.5644 145.445L99.2668 145.102L98.5724 143.818L98.4591 143.428L98.4307 142.97L98.4591 142.626L98.5866 141.847L98.8275 140.999L98.9125 140.151L98.8983 139.807L98.785 138.913L98.4165 136.919L98.2465 136.529L97.6655 135.864L97.4246 135.727L96.2059 135.222L95.384 134.764L93.8111 133.641L92.9042 133.068L91.7989 130.798L91.5863 129.835L90.8636 129.904L89.8575 129.812L87.1084 129.033L86.4424 128.918L85.9039 128.941L85.2663 129.056L83.8492 129.492L83.2399 129.606L82.7581 129.583L82.4038 129.514L82.007 129.331L74.029 123.898L71.6767 122.752L68.3749 121.147L68.1907 120.711L68.0774 120.574L67.8648 120.436L67.3972 120.184L68.0632 118.579L68.3324 118.419L69.877 114.2Z" stroke="#DADFE3" stroke-width="2"/>
</svg>
