<svg width="214" height="118" viewBox="0 0 214 118" fill="none" xmlns="http://www.w3.org/2000/svg">
<path d="M1.06805 6.43233L1.21405 7.07483L1.37442 7.01225L1.5977 6.95788L1.65857 6.94386L1.75123 6.93737L1.7885 7.0779L1.84937 7.34154L1.85826 7.37983L1.90544 7.95599L1.88937 8.1338L1.88424 8.17894L1.85997 8.1974L1.85279 8.28186V8.40154V8.44735L1.76149 9.30219L1.73824 9.86468L1.7526 10.1649L1.71977 10.4097L1.73174 10.843L1.72422 11.6212L1.72251 11.9197L1.72217 12.0254L1.72627 12.0927L1.72559 12.1519V12.2015L1.7249 12.2172L1.73243 13.6335L1.73345 13.9843L1.84629 13.9871L1.9964 14.0059L2.11676 14.0182L2.62283 13.9956L2.77054 13.9918L3.09914 13.9898L3.17779 13.9956L3.22361 14.0011L3.2855 14.0069L3.58948 14.0253L3.63803 14.0284L4.17111 14.0462H4.21761L4.25215 14.0507L4.33626 14.0517L4.39986 14.0527L4.47475 14.0479L4.54587 14.0329L6.06885 14.0247L6.14613 14.0253L6.29932 14.076L6.34548 14.0684L6.61253 14.0749L6.66861 14.0742L7.52789 14.0835L7.72553 14.0889L7.82572 14.09L8.14987 14.0872H8.19569L8.22031 14.1125L8.29485 14.1115L8.4942 14.1105L8.57763 14.1023L8.83067 14.0927H8.92196L9.03856 14.0534L9.21432 14.0565L9.25569 14.0329L9.4017 14.0161L10.5848 14.0182L10.7876 14.0394L10.8361 14.0582L10.9879 14.0571L11.2629 14.0544L11.3624 14.0151L12.3215 14.0086L12.3885 14.0695L13.3627 14.0732L13.814 14.077L13.9306 14.091L14.0349 14.0965L14.1392 14.0807L14.236 14.0677L14.2862 14.0424L14.872 14.0031L15.325 14.0086L15.6499 14.0414L15.9826 14.106L16.7458 14.2979L17.1913 14.3669L17.311 14.3864L17.3849 14.3933L17.9679 14.4288H18.9838L19.2426 14.4569L19.3083 14.4688L19.3828 14.4829L20.1357 14.4849L20.1775 14.4736L20.4216 14.4651L20.5573 14.4661L20.6391 14.4634H20.8087L20.8511 14.4623L21.5555 14.4839L21.7312 14.5389L21.9497 14.6795L22.0167 14.7485L22.2475 15.1517L22.5522 14.9732L22.8145 14.9171L22.9967 14.9209L23.1502 14.9571L23.3694 15.059L24.0841 15.5866L24.3607 15.7682L24.3737 15.7785L26.2595 17.2819L26.2755 17.3004L26.4886 17.524L28.257 19.0583L28.3066 19.1116L28.3169 19.1742L28.269 19.2754L28.6441 19.5336L29.8843 20.3146L30.8664 21.0836L30.918 21.1379L30.9272 21.2156L30.9258 21.6768L30.9522 21.9275L31.0083 22.134L31.0944 22.4428L31.3211 23.0555L31.5892 23.7732L31.6508 23.8864L32.271 24.4335L32.5398 24.5973L32.9272 24.8179L33.0383 24.8582L33.6925 24.7936L33.7978 24.8059L33.9311 24.8927L34.2136 25.9322L34.6447 27.313L34.8817 27.9247L35.3789 29.0332L35.9646 30.1127L37.517 32.56L39.0143 34.7959L39.9003 36.2382L40.0456 36.5459L40.1174 36.7818L40.1489 36.9856L40.1455 37.1682L40.1229 37.3665L39.875 38.1492L39.8476 38.3616L39.8815 38.6854L39.9393 38.8584L40.1225 39.2038L40.6693 39.9266L40.7408 39.9793L40.9815 40.1485L41.2821 40.3711V40.4994L40.1998 41.4554L40.4368 41.8671L40.5199 42.0165L40.5859 42.1345L40.6498 42.2477L40.7914 42.5011L40.9152 42.723L41.1675 43.1736L41.1983 43.2301L41.3669 43.5313L42.0001 44.6641L42.1348 44.9052L42.2648 45.1353L42.5178 45.5976L42.5647 45.6828L42.6375 45.8137L42.752 46.0131L42.7674 46.0391L42.9924 46.447L43.0711 46.5807L43.1576 46.738L43.1764 46.7735L43.2318 46.8765L43.4345 47.2386L43.691 47.6957L44.5253 49.1825L45.1182 48.8306L45.3596 48.6836L45.5063 48.5882L45.5819 48.5865L45.6472 48.5984L45.7224 48.6566L46.1317 49.3637L46.1922 49.5162L46.2931 49.8718L46.4049 50.1392L46.698 50.5742L46.9459 50.8398L46.9862 50.9065L47.1127 51.1178L47.4386 51.6913L47.8123 52.3563L48.8368 54.1693L48.9438 54.3573L49.1271 54.6791L49.245 54.8839L49.4088 54.7906L50.2261 54.3283L51.4228 53.6567L52.5998 52.9954L52.8603 52.9421L53.0679 52.8521L53.4225 52.636L53.4837 52.7147L53.5507 52.8008L53.643 52.9185L53.6413 52.9944L53.841 53.3609L54.0202 53.6864L54.1641 53.9419L54.2626 54.0383L54.4131 54.1364L54.5238 54.2852L55.7456 56.4695L55.8865 56.6784L55.9952 56.7905L56.1433 56.901L56.8309 57.3284L57.6799 57.856L57.9589 57.9552L58.3221 57.9784L59.5732 57.9449L59.7695 57.9244L59.9729 57.8663L60.2906 57.684L60.6445 57.4864L60.8497 57.8888L61.1605 59.0918L61.1673 59.1188L61.1755 59.1499L61.2299 59.3622L61.2706 59.4005L61.6238 59.3434L61.7493 59.3694L61.8867 59.3629L62.0191 59.3198L62.0721 59.3068L62.1685 59.2938L62.269 59.2891L62.4325 59.2357L62.9043 59.0832L63.1796 59.0261L63.4689 58.9608L63.5886 58.9215L63.8262 58.8439L64.137 58.8008L64.5111 58.8401L64.9703 58.9355L65.0739 58.9663L65.2497 59.0189L65.3369 59.0487L65.6706 59.1489L65.7776 59.1807L65.9106 59.2179L66.1035 59.2771L66.2656 59.2949L66.904 59.2778L67.2117 59.2675L68.1907 58.9027L69.647 58.8822L69.6955 58.8924L69.7335 58.9328L69.7557 58.9656L69.8032 59.0412L69.8398 59.0757L71.2766 58.0075L72.9155 56.768L73.7109 56.173L73.8914 55.7661L73.9058 55.7025L73.9331 55.5845L73.9482 55.5267L73.9636 55.4631L75.612 55.7613L78.3568 56.2284L79.3754 56.4031L79.5009 56.4247L79.6359 56.4414L79.6807 56.452L80.4504 56.5696L80.5735 56.6148L80.6788 56.6709L80.8207 56.7092L82.4716 56.887L84.5738 57.233L84.6884 57.3236L84.753 57.3441L85.0679 57.3705L85.1842 57.3619L85.3869 57.7045L85.4625 57.8916L85.4991 58.0694L85.4454 58.3463L85.4304 58.5361L85.4447 58.7054L85.509 58.943L85.6417 59.8474L85.6926 60.4602L85.6981 60.5081L85.8113 60.9533L85.9012 61.1564L86.1047 61.4043L86.1532 61.4932L86.2305 61.9066L86.3392 62.322L86.3334 62.3976L86.3037 62.4595L85.9638 62.8794L85.8807 63.0011L85.8725 63.0592V63.117L86.0352 63.3143L86.0616 63.406L86.1823 64.3398L86.1778 64.5979L86.0701 64.8804L85.9929 64.9778L85.6383 65.3229L85.6711 65.3464L85.8072 65.4456L85.8475 65.4754L85.7969 65.9561L85.8715 65.9872L86.4148 66.468L86.5622 66.6335L86.7294 66.9019L86.8289 67.1136L87.2225 68.3661L87.6947 69.2931L87.9627 69.6736L88.2937 69.9496L89.5497 70.7535L89.5832 70.7747L89.6755 70.7832L89.7818 70.7357L90.0615 70.4707L90.1891 70.3968L90.409 70.4485L90.7899 70.5822L91.5893 70.9039L91.6642 70.9292L92.5016 71.1686L92.9711 71.3577L93.246 71.4616L93.6525 71.6066L93.7934 71.6326L94.122 71.5933L94.1364 71.7198L94.0372 72.3465L93.7531 74.3062L93.1834 74.3558L93.0637 74.3735L93.0118 74.4177L93.0049 74.5103L93.0466 74.5643L93.1 74.5784L93.4412 74.539L93.51 74.5578L93.5431 74.6095L93.314 75.9208L93.3133 75.9694L93.3489 76.0265L93.4193 76.0436L94.5642 76.2275L94.599 76.2333L94.6773 76.2381L94.7485 76.1827L94.8521 75.6551L94.8886 75.6045L94.9283 75.5898L94.9994 75.599L95.0278 75.6291L95.0432 75.7283L94.8384 76.0576L94.8206 76.1352L94.8333 76.1752L94.9054 76.221L94.9922 76.1923L95.0241 76.1277L95.1023 75.6449L95.0972 75.6066L95.789 75.2783L97.008 74.8256L97.46 75.6114L97.7089 76.0049L97.9356 76.5028L98.2386 77.0068L98.6698 77.8032L98.9208 78.3099L98.9556 78.526L98.9396 78.7059L98.8544 78.9835L98.6882 79.2978L98.3429 79.73L98.2639 79.8609L98.2403 79.9546L98.2112 80.1362L98.2181 80.3458L98.2656 80.6186L98.3812 80.8348L98.678 81.2745L99.0302 81.6739L99.1235 81.7621L99.5759 82.0705L99.9811 82.2999L100.335 82.6104L100.529 82.819L100.634 82.9828L100.842 83.3073L100.996 83.6048L101.456 84.3793L101.663 84.5608L101.682 84.6655L101.567 85.2673L101.571 85.6283L101.517 85.8031L101.03 86.5328L100.781 86.7208L100.631 86.8819L100.577 86.9988L100.568 87.2727L100.669 87.3784L100.792 87.4591L100.889 87.6133L100.986 88.038L101.161 88.5245L101.27 88.7444L101.55 89.2587L101.684 89.4457L102.354 90.1354L102.724 90.5974L102.879 90.82L103.193 91.2758L103.402 91.4358L103.51 91.4898L103.636 91.5124L103.834 91.5086L103.953 91.4881L104.102 91.43L104.644 91.0743L104.681 91.0511L105.703 90.1915L105.778 90.1614L105.855 90.1607L106.184 90.253L106.275 90.2496L106.369 90.2072L107.309 89.59L107.398 89.5562L107.456 89.5627L107.545 89.6311L107.705 89.8454L107.759 89.9549L107.96 90.7806L108.045 91.4235L108.206 91.764L108.315 92.4701L108.437 92.9464L108.67 93.5954L108.79 93.8088L108.84 93.95L108.877 94.1812L108.893 94.678L108.868 95.1082L108.812 95.3356L108.68 95.6778L108.565 95.7705L108.085 95.9148L107.81 95.9746L107.566 95.9999L107.21 95.9326L107.029 95.9315L106.61 96.0232L105.767 96.1494L105.438 96.2307L105.386 96.2485L105.129 96.3374L105.079 96.3627L104.506 96.6154L104.218 96.809L104.035 96.9755L103.943 97.1399L103.916 97.2282L103.89 97.445L103.895 97.6108L103.952 97.8054L104.214 98.1606L104.393 98.3207L105.054 98.8137L105.485 99.2682L105.906 99.7547L106.112 100.131L106.154 100.34L106.146 100.397L105.864 100.966L105.646 101.434L105.548 101.828L104.782 102.613L104.033 103.448L103.523 103.881L103.063 104.363L102.863 104.633L102.808 104.722L102.307 105.551L102.06 106.209L101.957 106.4L101.685 106.62L101.592 106.731L101.437 107.01L101.426 107.034L101.322 107.263L101.217 107.571L101.172 108.007L101.126 108.807L101.101 108.943L101.009 109.224L100.981 109.439L100.983 109.633L101.048 109.979L101.037 110.064L101.103 110.097L101.319 110.331L101.637 110.572L101.727 110.624L101.935 110.747L101.98 110.802L102.026 110.886L102.106 111.138L102.135 111.416L102.136 111.486L102.128 111.917L102.074 112.004L102.142 112.123L102.197 112.45L102.238 112.444L102.313 112.436L102.432 112.421L102.465 112.417L102.492 112.414L102.533 112.409L102.728 112.365L102.773 112.345L102.728 112.365L102.533 112.409L102.492 112.414L102.465 112.417L102.432 112.421L102.313 112.436L102.238 112.444L102.197 112.45L102.142 112.123L102.074 112.004L102.128 111.917L102.136 111.486L102.135 111.416L102.106 111.138L102.026 110.886L101.98 110.802L101.935 110.747L101.727 110.624L101.637 110.572L101.319 110.331L101.103 110.097L101.037 110.064L101.048 109.979L100.983 109.633L100.981 109.439L101.009 109.224L101.101 108.943L101.126 108.807L101.172 108.007L101.217 107.571L101.322 107.263L101.426 107.034L101.437 107.01L101.592 106.731L101.685 106.62L101.957 106.4L102.06 106.209L102.307 105.551L102.757 104.806L102.307 105.551L102.06 106.209L101.957 106.4L101.685 106.62L101.592 106.731L101.437 107.01L101.426 107.034L101.322 107.263L101.217 107.571L101.172 108.007L101.126 108.807L101.101 108.943L101.009 109.224L100.981 109.439L100.983 109.633L101.048 109.979L101.037 110.064L101.103 110.097L101.319 110.331L101.637 110.572L101.727 110.624L101.935 110.747L101.98 110.802L102.026 110.886L102.106 111.138L102.135 111.416L102.136 111.486L102.128 111.917L102.074 112.004L102.142 112.123L102.197 112.45L102.238 112.444L102.313 112.436L102.432 112.421L102.465 112.417L102.492 112.414L102.533 112.409L102.728 112.365L103.167 112.18L103.265 112.125L103.646 111.956L103.695 111.937L103.984 111.836L104.383 111.695L104.575 111.649L104.677 111.659L104.771 111.69L104.85 111.771L104.918 112.007L105.405 111.895L105.855 111.835L105.954 111.792L106.02 111.736L106.144 111.56L106.394 111.227L106.758 110.996L107.42 110.64L108.719 109.975L109.17 109.739L112.192 108.142L112.389 108.035L112.616 107.913L115.201 106.555L115.461 106.446L115.548 106.45L116.299 106.592L116.368 106.583L116.392 106.633L116.64 107.182L116.635 107.261L116.561 107.327L116.572 107.412L116.585 107.446L116.61 107.518L116.628 107.573L116.66 107.695L117.54 107.617L118.129 107.654L118.536 107.738L118.909 107.863L119.618 108.216L119.671 108.251L120.074 108.523L123.757 110.95L124 111.211L126.409 112.797L126.58 112.913L127.152 113.286L127.916 113.784L131.055 115.833L131.382 116.046L131.548 116.154L131.749 116.308L132.039 116.602L132.247 116.815L132.316 116.842L132.448 116.801L132.516 116.863L132.582 116.886L132.681 116.736L132.713 116.688L132.756 116.625L132.79 116.563L132.731 116.363L132.744 116.342L132.818 116.224L132.909 116.082L133.408 115.26L133.659 114.738L133.742 114.553L133.836 114.37L134.049 114.188L134.202 114.076L134.468 113.885L134.74 113.673L135.105 113.348L135.163 113.294L135.461 113.054L135.674 112.883L135.722 112.843L135.862 112.718L135.895 112.688L136.016 112.583L136.181 112.436L136.307 112.33L136.317 112.343L136.337 112.368L136.317 112.343L136.307 112.33L136.472 112.198L136.747 111.98L137.046 111.745L137.504 111.386L137.618 111.299L137.71 111.224L138.161 110.844L138.642 110.516L138.697 110.474L138.836 110.367L139.217 110.031L139.833 109.511L140.004 109.369L140.06 109.323L141.959 107.741L142.442 107.304L143.125 106.639L143.298 106.465L143.465 106.25L144.074 105.416L144.281 105.087L144.469 104.74L144.871 103.858L145.294 103.05L145.573 102.452L145.864 101.847L146.053 101.372L146.088 101.333L146.144 101.316L146.169 101.156L146.258 100.975L146.534 100.412L146.551 100.375L147.008 99.4001L147.124 99.2131L147.365 98.8493L147.63 98.3196L147.786 97.9903L147.821 97.9175L148.198 97.1177L148.328 96.8568L148.993 95.4422L149.591 94.1617L149.811 93.6573L150.272 93.8351L150.732 94.0259L151.195 94.2092L152.374 94.6845L152.604 94.7358L152.627 94.7389L152.766 94.7379L152.901 94.7341V94.6753L156.722 94.6004L157.186 94.546L157.762 94.5235L158.241 94.533L162.353 94.374L163.476 94.3504L163.682 94.3439L163.673 94.081L163.619 92.0519L163.626 91.1109V91.0932L164.751 91.0241L164.789 91.0231L166.256 90.9772L166.324 90.968L166.43 90.9509L166.733 90.9325L167.03 90.9427L167.747 91.0764L168.176 91.1082L168.264 91.1157L168.583 91.0661L168.784 90.9482L169.502 90.4366L169.739 90.2886L169.839 90.1894L170.049 89.8714L170.068 89.8369L170.323 90.108L170.785 90.5132L170.83 90.5591L170.958 90.678L171.588 91.3954L171.761 91.577L171.959 91.7846L172.904 92.7779L173.902 94.0109L174.463 94.6931L174.524 94.7724L174.554 94.8015L174.915 94.851L175.531 94.8172V94.8322L175.638 94.8305L175.782 94.8315L175.8 95.1889L175.914 95.4901L175.863 97.2487L175.952 97.2692L175.996 97.2935L176.13 97.3065L176.236 97.3468L176.704 97.3656L177.246 97.4292L177.624 97.5226L177.76 97.5581L178.147 97.6658L178.798 97.9391L179.11 98.1206L179.582 98.4161L179.801 98.5993L179.88 98.6257L180.249 98.9361L180.33 99.0876L180.391 99.0428L180.497 99.025L180.592 98.9502L180.52 98.9129L180.592 98.9502L180.694 98.9922L180.699 98.9426L180.973 98.6397L181.13 98.4937L181.322 98.3843L181.54 98.2598L181.866 98.0888L181.927 98.0184L181.951 97.9726L181.999 97.6826L182.024 97.5003L182.013 97.448L181.946 97.4002L181.966 97.3489L182.284 96.9912L182.354 96.9146L182.434 96.996L182.581 96.8418L182.646 96.7754L182.677 96.6585L182.84 96.4711L183.861 95.3338L184.052 95.4121L184.192 95.3862L184.428 95.3421L184.486 95.3308L184.534 95.3243L184.863 96.068L185.342 97.0278L185.492 97.2702L185.724 97.5154L186.549 97.9838L187.12 98.4694L187.267 98.5648L187.701 98.7669L187.783 98.8089L188.336 99.1215L188.66 99.4254L188.744 99.4805L189.119 99.6593L189.82 99.9277L190.355 100.097L190.952 100.285L191.257 100.421L191.313 100.492L191.318 100.576L191.371 100.589L191.338 100.646L191.638 100.717L191.848 100.815L192.182 100.818L192.327 100.852L192.434 100.954L192.504 101.098L192.594 101.172L192.781 101.279L192.93 101.429L192.965 101.485L192.983 101.602L193.052 101.698L193.14 101.756L193.257 101.873L193.331 101.894L193.709 101.808L194.267 101.556L194.627 101.335L194.847 101.164L195.41 100.719L195.767 100.357L196.579 101.278L196.828 101.589L197.241 102.103L197.359 102.211L197.503 102.301L197.528 102.363L197.632 102.586L197.674 102.67L197.755 102.777L197.719 102.823L197.766 102.865L197.801 103.046L197.892 103.268L197.892 103.385L197.84 103.658L197.827 103.937L197.809 104.722L197.833 105.1L197.953 105.961L197.954 106.18L197.961 106.296L198.279 106.541L198.302 106.582H198.719L198.903 106.646L199.682 107.079L200.222 107.351L200.636 107.558L201.525 107.966L201.611 107.989L201.959 107.99L202.404 108.075L202.973 108.211L203.088 108.35L203.25 108.644L203.278 108.707L203.711 108.551L203.92 108.478L204.043 108.434L205.451 107.945L206.207 107.782L206.884 107.696L207.249 107.694L208.042 107.654L208.566 107.507L208.761 107.48L209.156 107.509L209.434 107.577L209.584 107.464L209.771 107.24L209.969 106.98L209.949 106.804L209.936 106.74L209.917 106.665L209.438 106.475L209.309 106.424L208.964 106.204L208.753 105.991L207.584 104.569L207.107 103.84L206.684 103.125L206.345 102.82L206.105 102.474L206.055 102.435L205.741 102.132L205.492 101.854L205.14 101.241L205.001 100.799L204.84 100.392L204.667 100.065L204.406 99.7212L204.196 99.4836L203.868 99.0616L203.617 98.7005L203.481 98.6051L203.384 98.6031L203.246 98.6499L203.138 98.691L202.967 98.6732L202.911 98.6537L202.756 98.4985L202.594 98.4106L202.495 98.3244L202.38 98.1589L202.354 98.1045L202.367 97.9962L202.245 97.7202L202.126 97.5311L201.928 97.3667L201.904 97.316L201.914 97.2907L202.001 97.0774L202.005 96.9933L201.953 96.9604L201.86 96.9194L201.776 96.7987L201.771 96.7108L201.8 96.6257L201.98 96.4769L201.989 96.4431L201.774 96.1186L201.76 96.0981L201.595 95.8707L201.01 94.7108L200.77 93.9774L200.457 93.2833L199.9 92.027L199.845 91.8995L199.782 91.6666L199.731 91.0959L199.453 89.0781L199.396 88.7283L199.394 88.6254L199.355 88.6798L199.264 88.2158L199.218 87.5011L199.281 86.1932L199.383 85.7631L199.41 85.4711L199.427 85.2755L199.368 85.1428L199.442 85.0529L199.156 84.5215L198.768 83.9088L198.409 83.4177L198.48 83.3784L198.859 83.2728L199.127 83.2642L199.211 83.2334L199.448 82.8939L199.583 82.6067L199.802 82.5215L199.861 82.4439L199.888 82.368L199.958 82.2353L200.39 81.8171L200.743 81.3176L200.972 81.2389L201.106 81.1285L201.226 80.951L201.602 80.5404L201.959 80.222L202.203 79.9697L202.557 79.4954L202.662 79.3241L202.775 79.1986L202.932 78.9647L203.078 78.7059L203.168 78.4617L203.299 78.1352L203.593 77.772L203.678 77.6551L203.995 77.2222L204.448 76.7271L204.499 76.6823L204.609 76.6953L204.904 76.7404L204.93 76.7411L204.978 76.5777L204.982 75.9386L204.985 75.6271L205.791 75.5447L206.389 75.5194L207.024 75.4558L207.247 75.3576L207.329 75.2585L207.448 75.135L207.533 75.0602L211.228 71.8654L212.462 70.8L212.854 70.4632L212.97 70.3818L212.904 70.3397L212.978 70.2286L212.955 70.191L212.925 70.0734L212.987 69.8627L213 69.8152L212.965 69.7954L212.938 69.8364L212.281 69.5707L211.747 69.4025L211.048 69.2661L210.004 69.0575L208.194 68.6636L207.699 68.5623L207.168 68.5709L206.774 68.6082L206.635 68.5952L206.402 68.5644L205.915 68.4587L205.474 68.3138L205.229 68.2341L204.905 68.1059L204.868 68.0929L204.438 67.9554L204.493 67.8795L204.635 67.583L204.567 67.5523L204.457 67.4904L204.376 67.6354L204.308 67.7588L204.352 67.7906L204.308 67.7588L204.153 67.7048L203.945 67.595L203.814 67.6084L203.764 67.5841L203.749 67.5194L203.743 67.4117L203.092 66.1004L202.728 65.3519L202.534 64.9638L202.416 64.5043L202.278 64.1986L201.965 63.3714L202.511 63.2798L203.059 63.1892L203.206 63.0459L202.994 62.7542L202.482 62.0505L202.298 61.8953L202.229 61.8402L201.964 61.4566L201.827 61.3171L201.789 61.3434L201.731 61.2545L200.83 60.333L200.776 60.2872L200.742 60.2537L201.193 59.6987L201.422 59.3995L201.607 59.1656L201.58 59.1068L201.497 58.929L201.313 58.5269L200.533 56.8719L200.227 56.2366L200.141 56.0656L200.103 56.0263L200.072 55.9719L199.463 56.2506L199 56.4219L198.423 56.5744L196.762 56.928L196.494 56.9608L196.001 57.0853L195.997 57.086L195.811 57.1263L195.625 57.1667L195.382 56.8747L195.198 56.6671L194.315 55.6286L193.646 54.8364L193.424 54.5686L192.517 53.4649L192.523 53.4228L192.626 52.5762L192.56 52.3143L192.289 51.8061L192.232 51.5565L192.275 51.204L192.364 50.9626L192.427 50.6829L192.497 50.5051L192.628 50.3563L192.657 50.3153L192.67 50.2086L192.627 49.1298L192.572 49.0645L191.954 48.7127L191.833 48.6323L191.71 48.5133L191.619 48.4227L191.543 48.4217L191.3 48.4668L191.216 48.5068L190.561 49.1647L190.16 49.4331L189.811 49.4547L189.75 49.4526L189.568 49.4482L189.244 49.376L188.861 49.3965L186.458 49.534L184.542 49.5059L184.402 49.4406L184.213 49.1083L184.036 49.1982L183.677 49.3965L183.412 49.5453L183.303 49.6051L182.075 49.7829L181.598 49.8202L181.193 49.852L180.859 49.9381L180.62 50.2271L180.563 50.29L180.207 50.6856L180.142 50.8689L180.179 51.0559L180.432 51.9063L180.388 52.1235L180.269 52.2647L179.407 52.5239L179.311 52.6165L179.217 52.7109L179.083 52.7653L179.035 52.5604L179.054 51.799L179.009 51.7446L178.603 51.521L178.478 51.4498L178.246 51.3199L178.176 51.2779L178.081 51.2225H178.032L177.878 51.3038L177.753 51.3743L177.693 51.3815L177.408 51.045L177.117 50.7229L177.078 50.6743L176.905 50.4593L176.733 50.2517L176.498 49.9484L176.08 50.1806L175.597 50.4863L175.211 50.7783L175.096 50.8802L174.733 50.4856L174.622 50.3601L173.993 49.9176L173.938 49.7829L174.106 48.912L174.093 48.7434L174.029 48.6302L173.943 48.5133L173.761 48.3256L173.681 48.2664L173.502 48.1403L173.443 48.1085L173.309 48.0243L173.221 47.7874L173.173 47.7549L172.673 47.4441L172.424 47.2926L172.358 47.2628L172.171 47.1907L172.145 47.2516L172.119 47.3104L172.204 47.375L172.182 47.416L172.094 47.547L172.061 47.5884L171.862 47.7829L171.816 47.8277L171.762 47.8783L171.688 47.9494L171.261 48.3601L170.966 48.6453L170.74 48.8652L170.578 49.0214L170.254 49.3432L170.021 49.5716L169.642 49.9354L169.563 49.997L169.428 50.1861L169.377 50.2804L169.244 50.5321L169.225 50.5594L169.174 50.5574L169.109 50.5837L169.061 50.5854L168.948 50.5988L168.652 50.4432L168.578 50.5724L168.451 50.7325L167.502 51.8195L167.408 51.9586L167.298 52.1289L167.236 52.1956L167.154 52.1748L167.104 52.1946L166.957 52.2524L166.81 52.3235L166.82 52.4733L166.74 52.5734L166.601 52.8709L166.5 52.968L166.476 52.9178L165.915 52.5567L165.715 52.3132L165.578 52.1823L164.971 51.7053L164.773 51.5651L164.587 51.4341L164.241 51.2515L160.391 48.2654L160.218 48.0719L157.991 45.1805L157.286 44.4179L157.189 44.3431L156.988 44.2589L156.393 44.1112L156.232 44.0445L156.034 43.8924L155.751 43.4639L155.265 42.5469L154.845 41.8473L154.386 41.1887L153.959 40.5527L153.608 39.9622L153.48 39.7789L153.23 39.4199L152.339 38.4084L152.278 38.287L151.97 37.4637L151.915 37.37L151.857 37.3224L151.036 36.8099L150.238 36.431L149.775 36.2053L148.399 35.4206L146.998 34.6957L146.691 34.5863L146.405 34.5206L146.007 34.4823L145.619 34.4991L145.15 34.5907L144.672 34.7771L142.949 35.7294L141.771 36.4673L138.332 33.5105L137.462 32.7292L137.73 32.416L137.851 32.1455L137.841 32.0183L137.802 31.9202L137.404 31.4682L137.371 31.3991L137.348 31.2121L137.339 31.0531L137.316 30.865L137.242 30.7508L137.096 30.6609L136.709 30.6564L136.618 30.6208L136.51 30.5254L136.456 30.4129L136.449 30.2728L136.494 30.1531L136.621 30.0406L136.755 29.9948L136.944 30.0324L137.701 30.7169L137.8 30.7696L137.99 30.7836L138.125 30.7433L138.232 30.6834L138.295 30.6048L138.767 29.9052L138.845 29.7995L138.941 29.7144L139.17 29.6104L139.311 29.5937L139.904 29.701L140.152 29.7527L140.374 29.7684L140.566 29.7328L140.744 29.645L140.827 29.6368L141.052 29.4607L141.106 29.4552L141.173 29.3971L141.272 29.3362L141.282 29.2876L141.258 29.2617L141.23 29.2261L141.196 29.1905L141.13 29.1857L141.099 29.1642L140.878 28.9351L140.606 28.6899L139.964 28.2276L135.435 25.5151L132.064 23.4898L131.994 23.4812L131.838 23.5394L131.789 23.5571L131.714 23.5524L131.644 23.4549L131.552 23.3858L131.381 23.2737L131.016 22.9488L130.137 22.413L129.705 22.134L128.808 21.6074L127.538 20.8487L127.263 20.6579L127.04 20.5279L126.672 20.3118L125.566 19.6635L125.423 19.6618L125.23 19.7169L125.166 19.6851L125.06 19.7217L124.791 19.7767L124.684 19.7535L124.609 19.6765L124.572 19.628L124.52 19.5373L124.402 19.0648L124.368 18.9619L124.33 18.8648L124.256 18.8254H124.115L123.715 18.9721L123.611 18.9451L123.246 18.7598L123.168 18.7205L123.088 18.6784L122.929 18.5933L122.891 18.5738L122.578 18.4137L122.553 18.4062L122.148 18.2876L122.103 18.2753L121.611 18.1443L121.527 18.12L121.433 18.092L121.328 18.0581L121.274 18.0441L121.183 17.9956L120.966 17.9525L120.794 17.9432L118.933 17.5531L118.438 17.4351L118.217 17.3849L118.086 17.3538L117.326 17.1835L115.542 16.8067L115.35 16.7861L115.283 16.7684L115.149 16.7776H115.097L115.073 16.7766L114.595 16.7656L113.505 16.7786L110.972 16.7608L109.491 16.4904L108.587 16.3782L100.301 16.3266L99.8358 16.3201L98.5829 16.2425L98.5251 16.2182L98.4913 16.1583L98.4338 16.1611L98.3853 16.1573L98.3155 16.1529L98.2998 16.1994L98.2581 16.2134L94.9133 16.1358L94.4352 16.0629L93.0542 16.0835L92.8743 16.0862L90.3621 16.1303L88.7629 16.1443L88.4271 16.1071L87.524 15.9357L87.2649 15.8338L87.0053 15.6335L86.8822 15.454L86.846 15.3004L86.3628 14.077L86.3509 13.9255L86.3604 13.8694L86.3902 13.7224L86.4063 13.6448L85.5873 13.4793L85.2509 13.4567L84.9889 13.4622L84.6552 13.5063L84.2962 13.5942L83.9098 13.7289L83.5942 13.8657L83.1692 14.0469L82.94 14.1136L82.6932 14.1454L82.4627 14.1396L82.1368 14.0677L81.2834 13.6711L80.4733 13.2126L79.955 12.8682L79.56 12.6015L79.2232 12.3071L78.831 11.8814L78.2029 11.0498L78.0476 10.8768L77.8815 10.7287L77.5429 10.4802L77.305 10.3342L76.4546 9.88588L76.3807 9.86536L76.3893 9.82433L76.4012 9.75218L76.4173 9.65883L76.3157 9.65199L76.1858 9.69439L76.0142 9.66533L75.9796 9.68208L75.4558 10.1358L75.4267 10.1622L75.41 10.2275L75.5221 10.8122L75.5423 11.0218L75.5074 11.1021L75.4352 11.1863L75.2954 11.3371L75.1029 11.5456H75.0796L74.7428 11.2444L74.6741 11.2687L74.5626 11.4164L74.2802 11.7747L74.0555 12.0134L73.9694 12.0992L73.9218 12.1488L73.8203 12.2517L73.6657 12.408L73.131 12.7869L72.4471 13.1161L72.2535 13.2724L72.1448 13.4232L72.1092 13.5333L72.1769 14.1067L72.0641 14.5017L72.0463 14.6477L72.0491 14.7383L72.0566 14.8908L72.0631 14.9517L72.0607 15.1059L72.0785 15.3397L71.9981 15.3493L71.9749 15.3575L71.8942 15.3651L71.6822 15.3052L71.5413 15.2303L71.3488 15.1657L71.0551 15.0563L70.7121 14.7971L70.5551 14.6692L70.3862 14.5287L70.203 14.4408L69.9985 14.3444L69.8449 14.2715L69.5519 14.1331L69.4534 14.0862L69.3362 14.0322L69.0458 13.8944L68.7873 13.772L68.627 13.6971L68.43 13.6044L68.2467 13.5176L68.0453 13.4222L67.7629 13.2902L67.582 13.204L67.4217 13.1226L67.2715 13.0413L66.9115 12.871L66.8045 12.8224L66.734 12.7879L66.6773 12.7626L66.6608 12.7551L66.5822 12.7205L66.4116 12.6494L66.004 12.4596L65.9141 12.4241L65.7978 12.3714L65.3591 12.1714L65.2469 12.1115L65.1697 12.0349L65.1215 11.9898L65.0695 11.9683L65.0206 11.9666L64.956 11.9795L64.7344 11.9122L64.2769 11.7272L63.6515 11.5408L63.605 11.5296L63.0589 11.3996L62.2755 11.1722L62.2095 11.1517L61.7917 11.016L61.5017 10.886L61.1129 10.7055L60.9806 10.6484L60.905 10.6269L60.8031 10.6429L60.557 10.5998L60.3915 10.5728L60.0656 10.5061L59.9145 10.4511L59.5359 10.3314L59.3256 10.2647L59.0825 10.1881L58.6551 10.0534L58.5898 10.0141L58.4496 9.89819L58.0861 9.75047L57.9962 9.72312L57.8769 9.68482L57.7654 9.64926L57.6922 9.65404L57.6748 9.70157L57.6416 9.78979L57.6245 9.8363L57.5975 9.90845L57.0832 9.74295L56.8439 9.639L56.6791 9.59797L56.3508 9.58498L56.1053 9.65507L55.9531 9.74671L55.6673 9.98504L55.3407 10.207L52.5875 11.5176L51.3175 12.0189L51.2225 12.0349L51.1739 12.0209L50.6511 11.5904L50.6419 11.5894L50.5895 11.6287L50.5615 11.667L50.5331 11.7057L50.9534 12.0161L50.7106 12.1563L50.6572 12.1806L50.064 12.2404L49.8027 12.1741L48.211 11.6998L46.8505 11.2892L46.3933 11.1527L43.1172 10.1704L42.8351 10.0452L42.5712 9.86536L41.8787 9.35383L41.5241 9.08917L40.8304 8.57626L40.7828 8.54002L40.3486 8.21792L39.7765 7.79323L39.2109 7.37436L39.0085 7.22357L38.7305 7.01704L38.246 6.65664L38.1732 6.60261L38.0255 6.49217L37.9807 6.45182L37.9338 6.40156L37.8251 6.31334L37.6962 6.16767L37.6445 6.09005L37.5669 5.96354L37.5334 5.93755L37.4814 5.90746L37.4541 5.89446L37.4219 5.88318L37.3973 5.87771L37.371 5.87019L37.3365 5.86164L37.2965 5.88489L37.2513 5.88045L36.827 5.57168L36.697 5.49406L36.5934 5.51081L36.5069 5.55014L36.4984 5.52312L36.4478 5.4031L36.3271 5.29368L36.1219 5.1169L35.9588 4.97671L35.9096 4.93363L35.6719 4.72402L35.3861 4.47714L35.1662 4.2901L35.025 4.16735L34.6629 3.85208L34.6256 3.82028L34.5709 3.74198L34.5346 3.63803L34.1848 2.51717L34.1705 2.46041L34.15 2.37903L34.1185 2.27508L34.0908 2.17694L34.0347 2.21319L33.9708 2.24601L33.9284 2.2826L33.8087 2.34346L33.2004 2.48195L33.0732 2.49118L33.0465 2.4734L32.9617 2.48195L32.8752 2.49392L32.7549 2.5117L32.7046 2.52093L32.641 2.53495L32.5401 2.60812L31.356 2.89911L30.9518 2.97468L30.1093 3.17574L29.7578 3.173L29.4118 3.24412L29.3471 3.25746L29.2579 3.27797L29.1543 3.30123L29.1009 3.31354L29.0695 3.33405L29.0025 3.35457L28.6588 3.42193L28.5552 3.42569L28.5227 3.44894L28.3743 3.40962L27.9568 3.1795L27.8389 3.14394L27.565 3.03383L27.2818 2.9887L26.386 2.89432L26.2663 2.88133L26.1712 2.87483L25.0302 2.79516L24.9693 2.78969L24.5193 2.75584L23.5715 2.68301L23.5264 2.67822H23.4628L23.3913 2.67275L23.3499 2.67343L21.8584 2.54726L21.698 2.47887L21.313 2.44912L21.2672 2.48366H21.206L21.126 2.48468L21.0829 2.48537H21.059L20.1597 2.41356L19.79 2.38347L19.4703 2.35817L19.0207 2.30961L18.9116 2.31714L18.7064 2.34996L18.5016 2.3845L18.3819 2.36124L18.2322 2.34996L17.8451 2.32466L17.5914 2.2761L17.5189 2.22344L17.3555 2.05248L17.2713 1.93554L16.7588 1.30877L16.7338 1.2479V1.18157L16.7366 1.17028L16.7109 1.06189L16.689 1L16.649 1.01026L16.477 1.14874L16.4039 1.20755L16.3734 1.23012L16.289 1.29748L16.2257 1.34535L15.7008 1.79808L15.5391 1.94203L15.2433 2.18139L15.1585 2.32568L14.8487 2.56983L14.8207 2.59205L14.7663 2.63514L14.5509 2.7661L14.4124 2.73703L13.6044 2.75857L13.1432 2.77943L13.1011 2.78969L13.0498 2.79516L12.951 2.80439L12.8597 2.85603L12.1126 2.91484L11.4776 2.9569L11.295 2.9504L11.0379 2.94219L10.7301 2.96271L10.6207 2.97194L10.3923 2.99177L10.2842 2.99725L9.70226 3.05537L8.66824 3.12992L8.26852 3.13744L8.09995 3.12445L7.98403 3.08615L7.89752 3.07315L7.4301 3.18155L7.31555 3.20583L7.15997 3.24036L7.11791 3.24617L6.61355 3.35936L6.53286 3.38261L6.46516 3.41646L6.38035 3.48382L6.22238 3.53408L5.64109 3.67154L5.53167 3.69685L5.15862 3.81003L4.83652 3.88046L4.53185 3.90748L4.30002 3.96082L3.82199 4.06921L3.50912 4.14033L3.19933 4.17043L3.07692 4.18239L2.9333 4.19846L2.83414 4.2077L2.77157 4.21248L2.29286 4.26651L2.23849 4.27608L2.15096 4.29386L1.93006 4.35268L1.80355 4.38345L1.76491 4.39405L1.38468 4.47714L1.30398 4.60263L1.26056 4.66042L1.21747 4.73052L1.38365 5.46226L1.42674 5.65853L1.44383 5.74846L1.49581 6.01893L1 6.13382L1.06463 6.41934" stroke="#DADFE3" stroke-width="2" stroke-linejoin="round"/>
</svg>
