<svg width="98" height="13" viewBox="0 0 98 13" fill="none" xmlns="http://www.w3.org/2000/svg">
<path fill-rule="evenodd" clip-rule="evenodd" d="M63.8163 12.9737C67.4546 12.9737 69.8801 10.2679 69.8801 6.49551C69.8801 2.70574 67.3877 0 63.7996 0C60.2282 0 57.7525 2.74043 57.7525 6.49551C57.7525 10.2679 60.2115 12.9737 63.8163 12.9737ZM63.7996 11.0658C61.4076 11.0658 59.9606 9.0885 59.9606 6.46949C59.9606 3.81578 61.3908 1.89922 63.7829 1.89922C66.2084 1.89922 67.6554 3.79844 67.6554 6.46949C67.6554 9.10585 66.175 11.0658 63.7996 11.0658ZM0 0.242189L3.98957 0.242189C5.20233 0.242189 6.28126 0.346255 7.15111 0.961989C8.09622 1.60373 8.58133 2.63573 8.58133 3.91055C8.58133 6.14798 7.20129 7.21467 5.70416 7.59625L8.71515 12.7302H6.2729L3.4961 7.87375L2.13279 7.87375L2.13279 12.7302H0L0 0.242189ZM2.13279 5.98321L3.88083 5.98321C5.44488 5.98321 6.44018 5.44553 6.44018 4.0493C6.44018 2.63573 5.44488 2.15008 3.88083 2.15008H2.13279L2.13279 5.98321ZM14.0519 0.242189L16.193 0.242189L16.193 12.7302H14.0519L14.0519 0.242189ZM24.7653 0.242189L22.139 0.242189L22.139 12.7302H24.8824C27.0904 12.7302 28.7047 12.6261 30.1182 11.438C31.4146 10.3367 32.2259 8.59355 32.2259 6.51222C32.2259 4.22274 31.2807 2.25415 29.7334 1.22215C28.3534 0.294222 26.4799 0.242189 24.7653 0.242189ZM25.4595 10.805H24.2885V2.21946C24.7402 2.20212 25.1667 2.20212 25.6853 2.20212C28.3952 2.20212 30.0262 3.66772 30.0262 6.51222C30.0262 9.72094 28.3367 10.805 25.4595 10.805ZM37.3448 0.242189L44.7385 0.242189V2.21079L39.4693 2.21079V5.38482L44.337 5.38482V7.34475L39.4693 7.34475V10.7876H44.8556V12.7302L37.3448 12.7302V0.242189ZM75.433 11.3088C74.7722 10.3982 74.6217 9.34889 74.6217 7.90063V0.234376L76.7628 0.234376V7.77922C76.7628 8.68981 76.7963 9.33156 77.0639 9.87791C77.4152 10.5804 78.2432 11.0573 79.1716 11.0573C80.1 11.0573 80.9197 10.5804 81.2793 9.87791C81.5469 9.34022 81.5804 8.68981 81.5804 7.77922V0.234376L83.7215 0.234376V7.90063C83.7215 9.34889 83.571 10.3982 82.9103 11.3088C82.1993 12.3755 80.6687 12.9999 79.1716 12.9999C77.641 13.0086 76.1606 12.3582 75.433 11.3088ZM88.5736 2.21165L91.9609 2.21165V12.7224L94.1021 12.7224V2.21165L97.4978 2.21165V0.234376L88.5736 0.234376V2.21165Z" fill="#050A1A"/>
</svg>
