<svg width="207" height="203" viewBox="0 0 207 203" fill="none" xmlns="http://www.w3.org/2000/svg">
<path d="M2 81.0789L2.4409 80.1089C2.57655 79.8105 2.84985 79.5975 3.17238 79.5389L3.71805 79.4396C3.96608 79.3945 4.18792 79.2574 4.33917 79.0558L5.03549 78.1273C5.19657 77.9126 5.43723 77.7716 5.70333 77.7361L7.2597 77.5286H7.70611C8.2584 77.5286 8.70611 77.0809 8.70611 76.5286V76.3649C8.70611 76.0997 8.81147 75.8453 8.99901 75.6578L9.30906 75.3477C9.43099 75.2258 9.58238 75.1375 9.74853 75.0913L11.8619 74.5043C12.3879 74.4166 13.4924 74.2413 13.7028 74.2413C13.8255 74.2413 14.1031 74.3605 14.3741 74.4946C14.6957 74.6538 14.8863 74.9887 14.8863 75.3476V76.1593C14.8863 76.5182 14.694 76.8495 14.3824 77.0276L13.278 77.6586C13.1256 77.7457 12.9988 77.8714 12.9104 78.023L12.3438 78.9943C12.2042 79.2336 12.1701 79.5201 12.2497 79.7855L12.4379 80.4128C12.4912 80.5904 12.5928 80.7497 12.7314 80.8728L13.2409 81.3258C13.524 81.5774 13.925 81.6475 14.2767 81.5068L15.6752 80.9474V80.9474C16.0916 80.8086 16.5344 81.0708 16.6129 81.5026L16.7272 82.1308L17.2146 83.8371C17.2402 83.9264 17.2531 84.0189 17.2531 84.1118V85.2349C17.2531 85.5189 17.1324 85.7895 16.921 85.9792L12.457 89.9853C12.2457 90.175 12.1249 90.4456 12.1249 90.7296V92.7509C12.1249 92.8584 12.1422 92.9652 12.1762 93.0672L13.0454 95.6746L13.8902 97.6056C13.9402 97.7198 14.0111 97.8237 14.0992 97.9119L14.334 98.1467C14.5933 98.4059 14.6899 98.7863 14.5857 99.1379L13.8058 101.77C13.7393 101.995 13.7537 102.235 13.8466 102.451L16.0247 107.495C16.137 107.755 16.1337 108.05 16.0155 108.308L11.7231 117.663C11.4192 118.326 11.9032 119.08 12.632 119.08H15.524C15.7892 119.08 16.0436 119.186 16.2311 119.373L17.1637 120.306C17.3076 120.45 17.4918 120.546 17.692 120.583L18.4368 120.718C18.6899 120.764 18.9154 120.906 19.0667 121.114L19.7158 122.006C19.8251 122.156 19.974 122.273 20.146 122.344L22.439 123.282C22.6566 123.371 22.8358 123.533 22.9453 123.741L23.8009 125.367C23.9783 125.704 23.9488 126.113 23.7247 126.421L23.2894 127.02C23.1293 127.24 23.0658 127.516 23.1137 127.784L23.5824 130.409C23.6517 130.796 23.9422 131.107 24.3243 131.203L25.5686 131.514C26.0138 131.625 26.3261 132.025 26.3261 132.484V133.147C26.3261 133.236 26.338 133.325 26.3613 133.411L26.6029 134.296C26.6778 134.571 26.866 134.801 27.1205 134.928L28.7248 135.73C28.9573 135.846 29.1355 136.049 29.2214 136.294L30.0079 138.541L31.4543 143.538L33.5233 149.136C33.6285 149.421 33.8572 149.642 34.145 149.738L37.24 150.77L39.1544 151.682C39.6306 151.908 39.8488 152.466 39.6529 152.956L38.8132 155.055C38.6011 155.585 38.8756 156.186 39.4157 156.372L42.1029 157.298C42.1917 157.329 42.2756 157.372 42.3524 157.426L45.5808 159.698C45.7161 159.793 45.8257 159.92 45.8997 160.068L46.787 161.843C46.8215 161.912 46.8639 161.977 46.9132 162.036L48.5115 163.954C48.7015 164.182 48.9829 164.314 49.2797 164.314H50.0086C50.1722 164.314 50.3333 164.354 50.4777 164.43L52.6337 165.576C53.3732 165.969 53.3312 167.042 52.5633 167.376L52.3476 167.47C51.8453 167.688 51.6122 168.27 51.8247 168.775L52.3292 169.973C52.434 170.222 52.635 170.418 52.8864 170.516L55.391 171.496C55.4749 171.529 55.5629 171.55 55.6525 171.56L58.8712 171.893C59.1628 171.923 59.4264 172.079 59.5924 172.321L60.7771 174.044L61.6626 175.028C61.8523 175.239 62.1224 175.359 62.4059 175.359H63.6951C64.1461 175.359 64.5412 175.661 64.6599 176.096L65.1755 177.987C65.2229 178.16 65.3162 178.318 65.4457 178.443L68.9221 181.799C69.0139 181.888 69.1219 181.958 69.2403 182.006L72.9174 183.5C73.1439 183.592 73.3962 183.598 73.6266 183.517L74.417 183.238C74.9909 183.035 75.611 183.388 75.7304 183.985L75.8081 184.373C75.8656 184.661 76.0465 184.909 76.303 185.051L78.0775 186.037C78.2015 186.106 78.3387 186.147 78.4801 186.159L81.1016 186.378C81.3087 186.395 81.5155 186.342 81.6885 186.226V186.226C82.0033 186.016 82.4146 186.021 82.725 186.237L86.2113 188.667C86.428 188.818 86.5762 189.049 86.6234 189.308L86.9835 191.289C87.0413 191.607 87.2492 191.877 87.5416 192.015L89.1829 192.787C89.2679 192.827 89.358 192.855 89.4507 192.87L92.5983 193.373L94.3695 193.706C94.5853 193.746 94.7817 193.856 94.9286 194.019L95.8856 195.083L97.0082 196.087C97.6 196.617 97.3682 197.592 96.6014 197.798L95.5759 198.074C95.2029 198.175 94.9211 198.481 94.852 198.861L94.8065 199.111C94.742 199.466 94.8733 199.828 95.1502 200.058L96.0019 200.768C96.1817 200.918 96.4082 201 96.6421 201H98.384C98.8661 201 99.9093 201 100.225 201C100.619 201 101.277 200.343 101.54 200.343C101.75 200.343 103.644 200.343 104.564 200.343H105.256C105.407 200.343 105.555 200.309 105.69 200.244L112.585 196.924L114.272 195.911C114.457 195.8 114.674 195.752 114.888 195.774L120.712 196.368C120.9 196.388 121.091 196.353 121.26 196.268L123.14 195.328C123.445 195.175 123.652 194.877 123.687 194.537L123.995 191.559C124.015 191.37 124.088 191.19 124.206 191.041L126.284 188.416C126.438 188.221 126.659 188.091 126.904 188.05L128.498 187.785C129.113 187.682 129.485 187.048 129.274 186.46L127.897 182.623C127.858 182.515 127.838 182.401 127.838 182.286V179.684C127.838 179.606 127.829 179.528 127.811 179.453L127.474 178.037C127.324 177.409 127.801 176.805 128.447 176.805H129.679L133.757 176.551C133.843 176.545 133.928 176.529 134.011 176.501L135.806 175.903C136.09 175.808 136.316 175.592 136.423 175.313L136.727 174.522C136.843 174.222 137.095 173.996 137.406 173.914L139.152 173.454C139.321 173.41 139.498 173.41 139.667 173.456L142.828 174.307L144.991 174.762C145.209 174.808 145.405 174.925 145.548 175.095L146.347 176.039C146.606 176.344 146.657 176.774 146.478 177.132L145.853 178.383L145.029 180.442C144.889 180.792 144.958 181.192 145.208 181.475L146.617 183.072C146.72 183.188 146.848 183.279 146.991 183.337L150.875 184.911C151.318 185.091 151.827 184.932 152.088 184.531L153.524 182.33C153.582 182.241 153.625 182.145 153.652 182.043L154.45 179.079C154.503 178.883 154.614 178.707 154.77 178.576L155.639 177.84C155.992 177.542 156.503 177.524 156.876 177.797L157.949 178.584C158.121 178.71 158.328 178.778 158.54 178.778H159.837C159.894 178.778 159.951 178.773 160.006 178.763L167.778 177.428C168.125 177.368 168.415 177.13 168.542 176.801L171.397 169.378C171.536 169.016 171.453 168.606 171.184 168.326L165.199 162.106C165.019 161.919 164.919 161.671 164.919 161.412V159.803C164.919 159.359 165.212 158.968 165.639 158.844L173.032 156.682C173.308 156.602 173.536 156.406 173.657 156.146L174.145 155.101C174.295 154.78 174.603 154.562 174.955 154.528L178.463 154.189H182.539H187.309C187.54 154.189 187.765 154.108 187.944 153.961L189.112 152.999C189.546 152.642 189.601 151.998 189.234 151.573L187.718 149.818C187.52 149.589 187.437 149.281 187.492 148.983L188.045 145.995C188.056 145.935 188.062 145.874 188.062 145.813V145.55C188.062 144.807 187.279 144.323 186.615 144.656L182.872 146.527C182.657 146.635 182.491 146.817 182.386 147.032C182.122 147.575 181.698 148.272 181.356 148.272C181.046 148.272 180.05 148.7 179.232 149.083C178.786 149.292 178.252 149.16 177.966 148.76L176.49 146.694L175.469 145.06C175.287 144.767 174.966 144.59 174.621 144.59H174.291C173.942 144.59 173.618 144.408 173.437 144.11L172.176 142.038C171.997 141.744 171.982 141.379 172.136 141.071L173.077 139.188C173.159 139.023 173.195 138.838 173.179 138.654L172.264 128.131C172.207 127.478 171.547 127.055 170.93 127.277L167.534 128.496C167.215 128.61 166.86 128.556 166.591 128.351L164.361 126.656C163.994 126.377 163.484 126.386 163.126 126.676L162.341 127.314C161.94 127.64 161.355 127.606 160.994 127.235L156.965 123.097C156.835 122.964 156.671 122.87 156.491 122.825L153.73 122.134C153.651 122.115 153.569 122.105 153.488 122.105H150.959C150.886 122.105 150.814 122.113 150.742 122.128L148.655 122.592C148.541 122.618 148.424 122.621 148.309 122.603V122.603C147.398 122.457 147.24 121.213 148.085 120.845L149.63 120.171C150.04 119.993 150.282 119.563 150.221 119.12L149.957 117.181C149.938 117.046 149.948 116.909 149.984 116.778L151.151 112.579C151.211 112.361 151.343 112.17 151.526 112.037L156.033 108.76C156.547 108.386 156.586 107.635 156.115 107.209L153.059 104.448C152.989 104.385 152.928 104.312 152.879 104.232L151.434 101.9C151.311 101.701 151.122 101.551 150.9 101.477L145.832 99.7878C145.758 99.7632 145.688 99.7302 145.622 99.6893L142.96 98.0414L136.779 95.1404C136.608 95.0598 136.417 95.0297 136.229 95.0535L126.453 96.2909C126.243 96.3176 126.046 96.4108 125.891 96.5571L123.976 98.3712C123.758 98.5785 123.458 98.6761 123.159 98.6371C121.39 98.4068 118.492 98.0414 118.108 98.0414C117.706 98.0414 116.39 95.3169 115.7 93.7752C115.64 93.6401 115.551 93.5204 115.439 93.4236L111.53 90.0423C111.101 89.6713 111.066 89.0182 111.453 88.6036L112.418 87.5697C112.528 87.452 112.664 87.3626 112.816 87.309L113.904 86.9251C114.413 86.7455 114.684 86.1913 114.513 85.6793V85.6793C114.326 85.1194 114.668 84.5217 115.246 84.3988L118.082 83.7953C118.939 83.613 119.164 82.4954 118.445 81.9958L115.755 80.1283C115.659 80.0613 115.551 80.0118 115.437 79.9821L112.826 79.3009C112.668 79.2596 112.522 79.18 112.402 79.0692L110.314 77.1484C109.813 76.6876 109.909 75.872 110.503 75.5397L116.627 72.1144C116.897 71.9631 117.082 71.6948 117.128 71.3882L117.4 69.5485C117.494 68.9185 118.144 68.5351 118.741 68.7587L119.503 69.0446C119.624 69.0898 119.734 69.1579 119.829 69.245L120.797 70.1359C121.501 70.7835 122.626 70.1681 122.459 69.2261L122.246 68.016C122.206 67.79 122.245 67.5572 122.356 67.3566L123.871 64.6307C124.047 64.3133 124.382 64.1164 124.745 64.1164H127.332C127.406 64.1164 127.48 64.108 127.553 64.0915L130.126 63.5068C130.265 63.4752 130.395 63.4144 130.509 63.3283L133.679 60.9231C133.97 60.7029 134.357 60.658 134.69 60.806L135.739 61.2725C136.187 61.4717 136.425 61.9665 136.3 62.4408L135.926 63.8611C135.882 64.0284 135.883 64.2043 135.927 64.3715L137.043 68.5871L138.065 71.5271C138.085 71.5832 138.099 71.641 138.109 71.6996L138.419 73.667C138.464 73.9487 138.626 74.198 138.866 74.3522L140.042 75.108C140.229 75.228 140.37 75.4069 140.444 75.6163L141.044 77.3157C141.093 77.4559 141.111 77.6053 141.095 77.7532L140.898 79.6255C140.871 79.883 140.945 80.1411 141.104 80.3452L145.848 86.4273C145.938 86.5421 146.051 86.636 146.181 86.7023L151.256 89.3019C151.335 89.3424 151.409 89.3932 151.474 89.453L155.641 93.252C155.775 93.3745 155.94 93.458 156.119 93.4937L158.345 93.9389C158.432 93.9563 158.516 93.9853 158.596 94.025L160.831 95.1427C161.01 95.2322 161.212 95.2659 161.41 95.2395L162.32 95.1182C162.768 95.0585 163.12 94.7065 163.179 94.2591L163.589 91.1892C163.599 91.1115 163.6 91.0329 163.592 90.955L163.2 87.1315C163.137 86.5124 162.529 86.1011 161.931 86.272L159.397 86.996C158.882 87.1431 158.343 86.8586 158.173 86.3507L157.607 84.6516C157.573 84.5497 157.556 84.4429 157.556 84.3354V79.764L156.982 75.4049C156.931 75.0165 157.111 74.634 157.443 74.4264L161.106 72.1374L162.107 71.4699C162.618 71.1296 162.704 70.4143 162.29 69.9621L160.879 68.4228C160.499 68.0083 160.535 67.3622 160.959 66.993L164.008 64.3373C164.173 64.1939 164.286 64.0007 164.33 63.7871L165.536 58.0016C165.563 57.8717 165.615 57.7484 165.691 57.639L168.41 53.6828C168.45 53.6257 168.483 53.5648 168.509 53.5009L169.563 50.9718C169.7 50.6432 170.001 50.4122 170.354 50.3652L171.002 50.2788C171.448 50.2193 171.799 49.8697 171.861 49.4242L172.111 47.6103C172.199 46.9732 172.857 46.5835 173.458 46.8124L174.954 47.3826C175.014 47.4054 175.076 47.4223 175.139 47.4333L176.897 47.7391C177.509 47.8455 178.068 47.3747 178.068 46.7539V46.4444C178.068 45.8922 178.516 45.4444 179.068 45.4444H180.011C180.425 45.4444 180.796 45.1896 180.945 44.8034L181.884 42.3611C181.968 42.1442 182.124 41.9632 182.326 41.8491L186.995 39.2156C187.092 39.1608 187.197 39.1226 187.307 39.1027L190.034 38.6068L193.479 37.5377C193.716 37.4641 193.917 37.3051 194.044 37.0914L195.362 34.8601C195.488 34.6479 195.687 34.4895 195.922 34.4153L197.066 34.0541C197.606 33.8835 197.897 33.2981 197.706 32.7642L197.526 32.2597C197.443 32.0285 197.279 31.8357 197.063 31.7182L196.686 31.5123C196.261 31.2805 196.063 30.7775 196.216 30.3182L196.403 29.7578C196.452 29.6105 196.534 29.4767 196.644 29.3669L196.672 29.3391C196.882 29.1292 196.988 28.837 196.961 28.5414L196.789 26.6528C196.759 26.3172 196.561 26.0195 196.264 25.861L195.032 25.2039C194.86 25.1121 194.718 24.9718 194.625 24.8004L193.418 22.5877C193.274 22.3236 193.256 22.0087 193.37 21.7302L195.464 16.6127C195.525 16.4629 195.549 16.3004 195.533 16.1393L195.304 13.7249C195.297 13.6573 195.284 13.5906 195.264 13.5257L194.976 12.5897C194.851 12.1847 194.995 11.7451 195.336 11.4925L202.751 5.99105C202.863 5.90808 202.956 5.80266 203.025 5.68156L205.682 1" stroke="#CDCDCD" stroke-width="3"/>
</svg>
