<svg width="204" height="207" viewBox="0 0 204 207" fill="none" xmlns="http://www.w3.org/2000/svg">
<path d="M84.5467 205.076L68.5716 193.248C68.0093 192.832 68.0374 191.981 68.6259 191.603L69.5641 191C69.7254 190.896 69.9131 190.841 70.1049 190.841H72.1587C72.415 190.841 72.6616 190.743 72.8474 190.566L75.6802 187.875C75.8789 187.686 75.9914 187.424 75.9914 187.15V181.217C75.9914 181.001 76.0616 180.791 76.1914 180.617L77.7515 178.537C77.9404 178.286 78.2367 178.137 78.5515 178.137H80.3059C80.6164 178.137 80.9092 177.993 81.0985 177.747L82.2911 176.197C82.4357 176.009 82.6423 175.878 82.8742 175.829L87.119 174.919C87.2528 174.89 87.3794 174.834 87.4907 174.755L89.6065 173.244C89.6853 173.187 89.7718 173.143 89.8634 173.111L101.478 169.129C101.651 169.07 101.804 168.964 101.922 168.824L102.345 168.316C102.509 168.119 102.592 167.866 102.573 167.61C102.504 166.653 102.376 165.117 102.258 164.403C102.171 163.885 102.261 163.883 102.383 164.039C102.551 164.253 102.747 164.449 103.007 164.53L105.028 165.162C105.236 165.227 105.458 165.222 105.663 165.149L107.439 164.515C107.642 164.443 107.816 164.307 107.935 164.128L108.095 163.888C108.305 163.572 108.319 163.166 108.131 162.837L107.207 161.219C107.114 161.056 107.068 160.87 107.076 160.683L107.557 148.819C107.571 148.475 107.407 148.148 107.122 147.953L101.224 143.918C101.113 143.842 100.988 143.789 100.856 143.763L96.128 142.817C95.9816 142.788 95.8436 142.726 95.7241 142.636L93.9024 141.27C93.8645 141.242 93.8287 141.211 93.7952 141.177L85.1045 132.486C84.9825 132.365 84.8942 132.213 84.8481 132.047L84.1466 129.522C84.0903 129.319 83.9718 129.14 83.8078 129.008L80.1435 126.077C79.9063 125.887 79.7682 125.6 79.7682 125.296V121.587C79.7682 121.519 79.7614 121.452 79.7477 121.385L78.6604 116.104C78.6009 115.815 78.6721 115.514 78.855 115.283L80.9883 112.58C81.089 112.453 81.1571 112.303 81.1867 112.143L81.9445 108.051C81.9807 107.855 81.9578 107.654 81.8787 107.471L79.9808 103.091C79.848 102.785 79.5709 102.565 79.2422 102.505L74.3693 101.619C74.1949 101.588 74.0152 101.603 73.8487 101.663L72.4499 102.172C72.2954 102.228 72.1295 102.245 71.9667 102.222L60.8057 100.628C60.4326 100.574 60.0612 100.735 59.8451 101.044L57.8484 103.897C57.8122 103.948 57.7712 103.996 57.7259 104.04L52.0981 109.507C51.8987 109.701 51.6277 109.803 51.3501 109.789L46.1413 109.522C45.5697 109.492 45.0901 109.948 45.0901 110.52V110.716C45.0901 111.189 44.7589 111.598 44.2961 111.695L42.1858 112.139C41.955 112.188 41.7487 112.317 41.6035 112.503L37.006 118.393C36.6451 118.856 35.9656 118.91 35.5363 118.51L31.4765 114.73C31.3969 114.656 31.3056 114.595 31.2064 114.55L17.3628 108.304C17.307 108.279 17.2491 108.259 17.1897 108.244L8.49969 106.113C8.2922 106.062 8.10647 105.946 7.9697 105.782L7.37561 105.069C7.33986 105.026 7.30058 104.986 7.25818 104.95L6.18518 104.03C6.14192 103.993 6.10191 103.952 6.06558 103.908L2.62028 99.7452C2.27498 99.328 2.32459 98.7117 2.73217 98.3551L5.98399 95.5097C6.07405 95.4309 6.14923 95.3366 6.20596 95.2312L8.38277 91.1886C8.47468 91.0179 8.61421 90.8776 8.78439 90.7848L12.2351 88.9026C12.2786 88.8789 12.3238 88.8584 12.3703 88.8414L19.0765 86.3879C19.2482 86.3251 19.3995 86.2163 19.5137 86.0735L22.0117 82.9511C22.0609 82.8895 22.1028 82.8223 22.1362 82.7508L24.5754 77.5473C24.6319 77.4269 24.7118 77.3189 24.8106 77.2297L29.9828 72.5579L34.205 68.8425C34.2513 68.8017 34.3014 68.7652 34.3545 68.7336L40.5542 65.0473C40.6024 65.0187 40.6481 64.986 40.6908 64.9497L43.9356 62.1917C44.018 62.1216 44.1113 62.0653 44.2118 62.0251L51.6614 59.0453C51.7437 59.0124 51.8213 58.9687 51.8921 58.9153L62.1664 51.1674C62.2269 51.1218 62.2821 51.0694 62.3308 51.0112L67.4043 44.9557C67.519 44.8189 67.5949 44.6539 67.6242 44.4779L68.2367 40.803C68.2561 40.6863 68.2961 40.574 68.3548 40.4713L69.5461 38.3867C69.6078 38.2786 69.6892 38.183 69.786 38.1049L73.9313 34.7567C74.0444 34.6654 74.1761 34.5998 74.3171 34.5645L78.9099 33.4163L82.1122 32.1354C82.264 32.0747 82.3986 31.9777 82.5042 31.8529L83.8815 30.2251C84.1 29.9669 84.1731 29.6158 84.076 29.2918L83.3286 26.8008C83.2478 26.5313 83.2842 26.2402 83.429 25.9989L83.6793 25.5817C83.7042 25.5402 83.7321 25.5005 83.7628 25.463L84.8776 24.1004C85.1137 23.8119 85.1697 23.416 85.0228 23.0733L84.2792 21.3382C84.2477 21.2646 84.2251 21.1876 84.212 21.1087L83.872 19.0691C83.7849 18.5461 84.121 18.0461 84.6382 17.9293L99.3023 14.618C99.5467 14.5628 99.7616 14.4178 99.9042 14.2118L100.997 12.6339C101.145 12.4201 101.204 12.1569 101.161 11.9003L100.096 5.51221C100.051 5.24264 100.119 4.96643 100.282 4.74781L101.301 3.38984C101.473 3.16101 101.734 3.01663 102.019 2.9932L113.831 2.02238C114.009 2.00773 114.188 2.04117 114.349 2.11921L119.607 4.66885C119.714 4.72039 119.81 4.79038 119.892 4.87555L123.679 8.81371C123.916 9.06065 124.011 9.41195 123.929 9.74469L122.141 17.0473C122.054 17.4019 122.167 17.7757 122.436 18.0223L123.957 19.4161C124.025 19.4789 124.102 19.5318 124.185 19.5734L128.084 21.5225C128.747 21.8542 128.815 22.7746 128.207 23.2C127.972 23.3645 127.821 23.6237 127.794 23.9092L127.51 26.8896C127.499 27.0052 127.508 27.1219 127.537 27.2343L128.746 31.9183C128.822 32.2139 128.76 32.5282 128.575 32.7716L124.737 37.8442C124.376 38.3206 124.511 39.0046 125.025 39.3086L126.466 40.1601C127.101 40.535 127.126 41.4442 126.512 41.853L125.471 42.5471C125.334 42.6387 125.176 42.6949 125.011 42.7106L122.015 42.9959C121.783 43.018 121.567 43.12 121.402 43.2843L120.245 44.4417C120.157 44.5299 120.086 44.6337 120.036 44.748L119.054 46.9923C118.961 47.2053 118.945 47.4442 119.009 47.6678L119.414 49.0855C119.524 49.473 119.392 49.8892 119.077 50.141L117.188 51.6524C117.078 51.7401 116.988 51.8499 116.924 51.9746L114.465 56.7388C114.343 56.9747 114.32 57.2494 114.401 57.5022L115.559 61.1199C115.617 61.3022 115.622 61.4974 115.573 61.6824L114.358 66.2374C114.304 66.4402 114.315 66.6549 114.39 66.8511L115.382 69.4552C115.54 69.8698 115.405 70.3389 115.052 70.6073L111.594 73.2358C111.439 73.3536 111.322 73.514 111.256 73.6975L109.639 78.2556C109.532 78.5586 109.576 78.8949 109.759 79.1592L110.527 80.2676C110.807 80.6721 111.339 80.8128 111.783 80.5993L115.095 79.0046C115.434 78.8412 115.837 78.8824 116.136 79.1113L117.951 80.4991C118.313 80.7762 118.817 80.7729 119.176 80.491L120.437 79.5C120.759 79.2473 121.202 79.216 121.556 79.4209L123.702 80.6631C124.027 80.8514 124.43 80.8414 124.746 80.6372L126.836 79.2848C127.039 79.1537 127.282 79.1003 127.521 79.1345L130.193 79.5162C130.542 79.566 130.891 79.4287 131.112 79.1546L134.225 75.3006C134.314 75.1902 134.379 75.062 134.415 74.9247L135.322 71.4473C135.367 71.2752 135.457 71.1183 135.583 70.9926L137.622 68.9528L140.16 65.9676C140.395 65.6909 140.762 65.5635 141.118 65.6347L141.911 65.7934C142.135 65.8382 142.337 65.9584 142.483 66.1338L144.284 68.2948C144.6 68.6735 145.144 68.7658 145.567 68.5121L146.783 67.7826C147.155 67.5592 147.629 67.6016 147.956 67.8875L148.071 67.9879C148.47 68.3368 148.527 68.9362 148.202 69.3544L147.766 69.9148C147.644 70.0711 147.572 70.2599 147.558 70.4575L147.458 71.8536C147.428 72.2758 147.667 72.6713 148.055 72.841L149.963 73.6758C150.089 73.7311 150.226 73.7597 150.364 73.7597H150.768C151.217 73.7597 151.611 74.0592 151.731 74.492L152.316 76.5963C152.362 76.7625 152.45 76.9139 152.572 77.0358L153.295 77.7586C153.483 77.9461 153.737 78.0515 154.002 78.0515H154.996C155.3 78.0515 155.587 77.9134 155.777 77.6762L156.631 76.6087C156.773 76.4314 156.85 76.2111 156.85 75.984V73.9557C156.85 73.4514 157.225 73.026 157.726 72.9635L160.881 72.569C160.94 72.5617 160.999 72.549 161.055 72.5312L163.242 71.8479C163.541 71.7545 163.867 71.8066 164.121 71.9887L165.929 73.28C166.055 73.3697 166.158 73.4871 166.231 73.6232L167.352 75.7258C167.444 75.899 167.484 76.0957 167.465 76.2911L167.269 78.3443C167.208 78.9847 167.759 79.5153 168.397 79.4303L169.165 79.3279C169.513 79.2816 169.859 79.4206 170.078 79.6944L172.654 82.9138C172.948 83.282 173.46 83.3944 173.882 83.1835L176.175 82.037C176.224 82.0124 176.275 81.9919 176.328 81.9757L184.525 79.4535C184.918 79.3326 185.197 78.984 185.228 78.5744L186.161 66.4479C186.189 66.0866 186.41 65.7685 186.739 65.6167L188.344 64.8759C188.406 64.8471 188.471 64.8248 188.538 64.8094L190.091 64.451C190.448 64.3688 190.821 64.4877 191.064 64.761L191.868 65.6656C191.983 65.7948 192.062 65.9515 192.098 66.1205L192.536 68.1625C192.55 68.2314 192.558 68.3016 192.558 68.372V70.1279C192.558 70.3666 192.643 70.5975 192.799 70.7787L193.588 71.6996L194.651 73.294C194.844 73.5833 194.873 73.9521 194.727 74.2678L194.214 75.3785C194.043 75.7489 194.114 76.1859 194.394 76.483L196.415 78.6305C196.584 78.8104 196.814 78.9212 197.06 78.9417L200.106 79.1955C200.522 79.2302 200.873 79.5201 200.986 79.9224L201.844 82.9892C201.938 83.3243 201.817 83.6826 201.538 83.8914C201.392 84.0009 201.215 84.0601 201.032 84.0601H198.603C198.358 84.0601 198.122 84.15 197.939 84.3127L197.503 84.7001C197.061 85.0929 197.055 85.7809 197.484 86.1881C198.178 86.8473 198.91 87.5689 198.91 87.6652V89.0377C198.91 89.2608 198.835 89.4775 198.698 89.6533L194.991 94.3979C194.762 94.6915 194.715 95.0882 194.869 95.4273L196.245 98.4552C196.304 98.5851 196.335 98.7262 196.335 98.869V106.553C196.335 106.773 196.262 106.987 196.127 107.162L194.928 108.721C194.733 108.974 194.671 109.306 194.762 109.613L195.378 111.707C195.442 111.925 195.43 112.157 195.344 112.367L193.677 116.461C193.618 116.604 193.528 116.731 193.412 116.833L190.884 119.064C190.744 119.188 190.641 119.348 190.587 119.527L189.639 122.687L188.353 125.741C188.296 125.878 188.209 126 188.099 126.098L185.257 128.641C185.093 128.788 184.886 128.876 184.667 128.893L183.194 129.006C182.924 129.027 182.675 129.156 182.502 129.363L181.323 130.778C181.152 130.983 181.07 131.248 181.096 131.514L181.896 139.835C181.908 139.961 181.896 140.088 181.861 140.21L180.409 145.211C180.382 145.302 180.369 145.396 180.369 145.49V148.988C180.369 149.189 180.309 149.385 180.195 149.551L178.092 152.636C177.905 152.91 177.596 153.073 177.265 153.073H176.047C175.495 153.073 175.047 152.625 175.047 152.073V151.67C175.047 151.117 174.6 150.67 174.047 150.67H173.65C173.442 150.67 173.24 150.734 173.07 150.855L166.385 155.608C165.949 155.919 165.834 156.517 166.125 156.967L174.518 169.937C174.812 170.392 174.69 170.999 174.243 171.306L168.789 175.037C168.616 175.155 168.485 175.325 168.414 175.521L168.002 176.653C167.898 176.94 167.93 177.259 168.09 177.519L170.435 181.33C170.532 181.487 170.584 181.669 170.584 181.854V182.96C170.584 183.366 170.338 183.731 169.963 183.885L160.911 187.595C160.452 187.783 159.924 187.606 159.671 187.18L157.832 184.076C157.568 183.63 157.006 183.46 156.539 183.685L149.209 187.209C148.765 187.422 148.232 187.28 147.952 186.875L143.637 180.611C143.343 180.183 142.769 180.052 142.318 180.31L131.287 186.614C131.163 186.684 131.025 186.728 130.883 186.741L122.826 187.487C122.275 187.538 121.788 187.133 121.738 186.582L121.053 179.047C121.006 178.532 120.574 178.137 120.057 178.137H110.827C110.723 178.137 110.619 178.154 110.52 178.186L105.747 179.725C105.492 179.808 105.28 179.989 105.16 180.23L103.803 182.944L101.123 188.638C101.079 188.733 101.019 188.82 100.947 188.897L85.8708 204.956C85.5236 205.326 84.9544 205.378 84.5467 205.076Z" stroke="#CDCDCD" stroke-width="3"/>
</svg>
