<svg width="188" height="232" viewBox="0 0 188 232" fill="none" xmlns="http://www.w3.org/2000/svg">
<path d="M1 1L5.44734 2.39122C5.86468 2.52177 6.14879 2.90833 6.14879 3.34561V34.4678C6.14879 35.0201 6.5965 35.4678 7.14879 35.4678H22.2042C22.7564 35.4678 23.2042 35.9155 23.2042 36.4678V42.521C23.2042 43.0733 23.6519 43.521 24.2042 43.521H56.6713H62.0743C62.5001 43.521 62.8791 43.7906 63.0189 44.1928L65.2039 50.4811C65.3026 50.7651 65.5239 50.9897 65.8064 51.0925L72.4394 53.507L82.696 58.3553C83.3336 58.6568 83.4672 59.5059 82.9529 59.9886L79.2844 63.4313C79.0304 63.6697 78.9187 64.0232 78.9897 64.3642L80.439 71.328C80.4689 71.4717 80.4668 71.6203 80.4328 71.7631L78.9447 78.0196C78.8995 78.2096 78.911 78.4088 78.9777 78.5924L82.5405 88.4001C82.6621 88.7351 82.5964 89.1094 82.3678 89.3829L69.8757 104.328C69.6673 104.577 69.593 104.912 69.6767 105.226L70.7403 109.219C70.7987 109.438 70.9297 109.631 71.1119 109.766L77.3911 114.412C77.8492 114.751 77.9319 115.403 77.5727 115.846L74.0484 120.188L69.5433 127.275M69.5433 127.275L60.0061 123.063C59.345 122.771 58.6021 123.255 58.6021 123.977V128.043C58.6021 128.369 58.443 128.674 58.1759 128.862L53.0115 132.48C52.549 132.805 52.4465 133.447 52.7851 133.899L55.3529 137.326C55.712 137.806 55.5722 138.491 55.0541 138.791L50.2412 141.58C50.03 141.703 49.8709 141.898 49.7938 142.13L48.026 147.439C47.9973 147.525 47.9569 147.607 47.9061 147.682L40.1089 159.234C39.9973 159.399 39.9377 159.594 39.9377 159.793V163.702C39.9377 163.895 39.9933 164.083 40.0979 164.245L43.3173 169.226C43.4219 169.387 43.4775 169.576 43.4775 169.768V175.272V178.689C43.4775 178.773 43.4669 178.856 43.4461 178.938L40.6957 189.644C40.6231 189.927 40.6775 190.227 40.8447 190.466L44.7717 196.082C44.9678 196.362 45.0069 196.724 44.8754 197.039L43.5707 200.174C43.5095 200.321 43.4139 200.451 43.292 200.554L37.5979 205.354C37.445 205.483 37.257 205.563 37.0582 205.584L31.9294 206.124C31.5193 206.168 31.1777 206.458 31.0693 206.856L30.3589 209.464C30.3098 209.644 30.3122 209.834 30.3658 210.013L31.1429 212.606C31.2114 212.835 31.1959 213.081 31.0989 213.299L26.3204 224.062C26.1831 224.371 26.2115 224.729 26.3957 225.012L29.7323 230.151C30.0357 230.618 30.6626 230.747 31.126 230.438L37.9018 225.916C37.9716 225.87 38.047 225.832 38.1262 225.804L43.9586 223.761C44.2626 223.654 44.5993 223.701 44.8631 223.886L47.5302 225.754C47.6168 225.815 47.6932 225.889 47.7566 225.974L50.849 230.101C51.2077 230.58 51.9035 230.639 52.3375 230.227L57.3473 225.476C57.5331 225.3 57.7794 225.202 58.0354 225.202H60.1993C60.4158 225.202 60.6265 225.272 60.7997 225.402L66.7021 229.833C66.8752 229.963 67.0859 230.034 67.3025 230.034H69.8394C70.0644 230.034 70.2829 229.958 70.4594 229.818L76.0284 225.417C76.205 225.278 76.4222 225.202 76.6472 225.202C78.9652 225.202 82.8278 225.202 82.0934 225.202C81.3945 225.202 84.6843 226.257 86.9058 226.935C87.302 227.056 87.7312 226.918 87.9844 226.59L92.9873 220.109C93.0188 220.068 93.0534 220.03 93.0908 219.994L98.8369 214.545C99.036 214.356 99.1488 214.094 99.1488 213.819V205.174C99.1488 204.811 99.3455 204.476 99.6628 204.3L107.441 199.974C107.693 199.834 107.872 199.592 107.932 199.31L109.676 191.163C109.735 190.89 109.905 190.653 110.147 190.511L115.129 187.577C115.202 187.534 115.269 187.482 115.329 187.422L116.877 185.873C117.064 185.685 117.319 185.58 117.584 185.58H119.903C120.011 185.58 120.118 185.597 120.22 185.631L121.734 186.136C121.906 186.194 122.059 186.297 122.177 186.435L123.785 188.313C123.879 188.422 123.948 188.551 123.987 188.689L125.746 194.852C125.818 195.103 125.985 195.316 126.211 195.446L127.685 196.289C127.953 196.442 128.278 196.463 128.564 196.344L137.259 192.743C137.38 192.693 137.51 192.667 137.642 192.667H139.558C140.017 192.667 140.417 192.979 140.528 193.424L140.891 194.875C140.95 195.112 140.92 195.364 140.806 195.581L137.607 201.695C137.501 201.898 137.467 202.131 137.512 202.355L138.041 205.003C138.071 205.152 138.135 205.293 138.227 205.414L142.025 210.386C142.182 210.591 142.413 210.728 142.668 210.767L146.453 211.35L149.306 211.921C149.542 211.968 149.752 212.099 149.9 212.288L151.805 214.741C151.884 214.842 151.942 214.957 151.977 215.08L152.546 217.074C152.56 217.124 152.571 217.174 152.577 217.225L152.839 219.323C152.871 219.581 153.003 219.817 153.206 219.979L155.833 222.083C156.011 222.225 156.231 222.303 156.458 222.303H160.631C160.829 222.303 161.022 222.244 161.186 222.134L162.616 221.18C162.778 221.072 162.906 220.918 162.982 220.738L166.248 213.01C166.349 212.772 166.353 212.504 166.26 212.262L164.941 208.83C164.848 208.587 164.853 208.317 164.956 208.078L165.584 206.609C165.697 206.346 165.916 206.144 166.187 206.054L169.1 205.082C169.794 204.851 170.013 203.977 169.51 203.446L164.994 198.674C164.864 198.537 164.776 198.367 164.739 198.183L163.973 194.344C163.888 193.92 164.086 193.489 164.463 193.277L168.884 190.787C168.947 190.752 169.014 190.723 169.083 190.702L176.31 188.5C176.357 188.486 176.405 188.475 176.453 188.468L182.574 187.549C182.734 187.525 182.884 187.464 183.013 187.368C184.233 186.469 186.278 184.857 186.035 184.613C185.789 184.368 186.498 181.374 186.937 179.698C186.978 179.541 186.981 179.376 186.944 179.217L186.124 175.659C186.066 175.41 185.917 175.193 185.704 175.054C184.955 174.567 183.698 173.78 182.817 173.339C181.891 172.875 180.201 172.203 179.246 171.839C179.056 171.766 178.85 171.755 178.653 171.804L177.623 172.062C176.992 172.22 176.381 171.742 176.381 171.091V170.33C176.381 169.996 176.214 169.684 175.936 169.499L173.484 167.863L166.524 163.429C166.445 163.379 166.359 163.34 166.269 163.313L161.155 161.807C161.01 161.764 160.857 161.755 160.708 161.78L155.316 162.68C155.201 162.699 155.083 162.698 154.969 162.677L146.453 161.098L144.201 160.534C143.992 160.482 143.772 160.499 143.573 160.581L140.263 161.962C140.102 162.029 139.926 162.053 139.754 162.031L137.576 161.759C137.488 161.748 137.401 161.725 137.319 161.691L131.972 159.487L125.419 156.363C125.284 156.299 125.137 156.266 124.988 156.266H121.892C121.749 156.266 121.607 156.297 121.477 156.356L118.135 157.877L115.655 159.256C115.392 159.402 115.076 159.422 114.797 159.31L112.175 158.26C112.073 158.22 111.978 158.162 111.895 158.091L109.947 156.42C109.83 156.319 109.69 156.246 109.539 156.209L106.294 155.397C106.045 155.334 105.83 155.179 105.693 154.963L103.78 151.955C103.697 151.824 103.646 151.676 103.629 151.523L103.056 146.069C103.027 145.793 102.884 145.541 102.662 145.374L99.2764 142.833C99.1919 142.769 99.1179 142.693 99.0573 142.606L97.0306 139.708C96.9422 139.581 96.8257 139.477 96.6903 139.403L93.4768 137.648C93.3969 137.605 93.3114 137.572 93.2227 137.552L89.4184 136.673C89.2573 136.636 89.0895 136.639 88.93 136.683L86.0619 137.466C85.789 137.54 85.4973 137.496 85.2591 137.343L69.5433 127.275Z" stroke="#E9ECEE" stroke-width="2"/>
</svg>
